<?xml version="1.0" encoding="UTF-8" ?>
<svg xmlns="http://www.w3.org/2000/svg" viewBox="0 0 500 500">
  <path d="M253.9 345.4v1.6l-7.8 3.6v-2l5.5-2.4v.1-.2l-5.5-2.3v-2l7.8 3.6Zm-15.3 7.8 4.8-13.6 1.8.1-4.8 13.6-1.8-.1Zm-7.4-9.6 8.3-2.3-.3 2-5.9 1.4h.1v.2-.1l5 3.2-.3 2-7.1-4.8.2-1.6Z"/>
  <path d="m231.5 343.6-.4 1.6-8.4 1.7.5-2 6-1-.2.1.1-.2v.1l-4.8-3.6.5-2 6.7 5.3Z"/>
  <path d="m216.8 339.5 8.5-1-.6 2-6 .5.1-.1v.2-.1l4.4 4-.6 1.9-6.3-5.8.5-1.6Z"/>
  <path d="m217 339.6-.5 1.5-8.6.4.8-1.9h6-.1v-.2h.1l-4.2-4.2.8-1.9 5.8 6.3Zm-17 1.4 9.6-10.8 1.6.9-9.6 10.7-1.6-.8Zm-3.1-11.7 8.5 1-1.1 1.7-6-.9h.2l-.2.2v-.1l3.5 4.9-1 1.7-4.8-7.1.9-1.4Z"/>
  <path d="m197 329.4-.9 1.4-8.4-1.7 1.2-1.6 5.9 1.3h-.1l.1-.2v.2l-3-5.2 1.1-1.6 4.2 7.4Z"/>
  <path d="m185.1 320 8.2 2.3-1.3 1.6-5.7-1.8h.1l-.2.1v-.1l2.7 5.4-1.3 1.5-3.6-7.8 1.1-1.2Z"/>
  <path d="m185.3 320.2-1.2 1.1-8-3 1.4-1.3 5.6 2.2h-.1l.2-.2v.2l-2.3-5.6 1.4-1.4 3 8Zm-16.3-5.3 13-6.2 1.2 1.4-13 6.2-1.2-1.4Zm1.6-11.9 7.4 4.1-1.6 1.2-5.2-3 .2-.1-.3.1h.1l1.3 5.8-1.6 1.2-1.7-8.4 1.4-1Z"/>
  <path d="m170.7 303.1-1.4.9-7.1-4.7 1.7-1.1 5 3.5h-.2l.2-.2v.1l-1-5.9 1.8-1 1 8.5Z"/>
  <path d="m163.3 289.8 6.7 5.3-1.8 1-4.6-3.9-.1.1.4 6-1.8.8-.3-8.5 1.5-.8Z"/>
  <path d="m163.4 290-1.5.7-6.3-5.8 1.8-.8 4.3 4.2h.2-.1v-6l2-.8-.4 8.6Zm-13.1-11 14.4-.8.6 1.7-14.4.7-.6-1.7Zm6.1-10.5 5.3 6.7-2 .5-3.6-4.8h.1-.2l-1 5.9-2 .5 1.8-8.4 1.6-.4Z"/>
  <path d="m156.4 268.8-1.6.2-4.8-7.1 2-.3 3.2 5h.2-.1l1.4-5.8 2-.3-2.3 8.3Z"/>
  <path d="m154.6 253.6 4.2 7.5-2 .1-2.8-5.3h.1-.3.1l-1.9 5.7-2 .2 3-8 1.6-.2Z"/>
  <path d="M154.6 253.9H153l-3.6-7.8h2l2.4 5.5h-.1.2l2.3-5.5h2l-3.6 7.8Zm-7.8-15.3 13.6 4.8-.1 1.8-13.6-4.8.1-1.8Zm9.6-7.4 2.3 8.3-2-.3-1.4-5.9v.1h-.2.1l-3.2 5-2-.3 4.8-7.1 1.6.2Z"/>
  <path d="m156.3 231.5-1.5-.4-1.7-8.4 2 .5 1 6-.1-.2.2.1h-.1l3.6-4.8 2 .5-5.4 6.7Z"/>
  <path d="m160.5 216.8 1 8.5-2-.6-.5-6 .1.1h-.2.1l-4 4.4-1.9-.6 5.8-6.3 1.6.5Z"/>
  <path d="m160.4 217-1.5-.5-.4-8.6 1.9.8v6-.1h.2v.1l4.2-4.2 1.9.8-6.3 5.8Zm-1.4-17 10.8 9.6-.9 1.6-10.7-9.6.8-1.6Zm11.7-3.1-1 8.5-1.7-1.1.9-6v.2l-.2-.2h.1l-4.9 3.5-1.7-1 7.1-4.8 1.4.9Z"/>
  <path d="m170.6 197-1.4-.9 1.7-8.4 1.6 1.2-1.3 5.9v-.1l.2.1h-.2l5.2-3 1.6 1.1-7.4 4.2Z"/>
  <path d="m180 185.1-2.3 8.2-1.6-1.3 1.8-5.7v.1l-.1-.2h.1l-5.4 2.7-1.5-1.3 7.8-3.6 1.2 1.1Z"/>
  <path d="m179.8 185.3-1.1-1.1 3-8 1.3 1.3-2.2 5.6v-.1l.2.2h-.2l5.6-2.3 1.4 1.5-8 3Zm5.3-16.3 6.2 13-1.4 1.2-6.2-13 1.4-1.2Zm11.9 1.6-4 7.4-1.2-1.6 3-5.2.1.2-.1-.3v.1l-5.8 1.3-1.2-1.6 8.4-1.7 1 1.4Z"/>
  <path d="m196.8 170.7-.8-1.4 4.7-7.1 1.1 1.7-3.5 5v-.2l.2.2h-.1l5.9-1 1 1.8-8.5 1Z"/>
  <path d="m210.2 163.3-5.3 6.7-1-1.8 3.9-4.6-.1-.1-6 .4-.8-1.8 8.5-.3.8 1.5Z"/>
  <path d="m210 163.4-.7-1.5 5.8-6.3.8 1.8-4.2 4.3v.2-.1h6l.8 2-8.6-.4Zm11-13.1.8 14.4-1.7.6-.7-14.4 1.7-.6Zm10.5 6.1-6.7 5.3-.5-2 4.8-3.6v.1-.2l-5.9-1-.5-2 8.4 1.8.4 1.6Z"/>
  <path d="m231.2 156.4-.2-1.6 7.1-4.8.3 2-5 3.2v.2-.1l5.8 1.4.3 2-8.3-2.3Z"/>
  <path d="m246.4 154.6-7.5 4.2-.1-2 5.3-2.8v.1-.3.1l-5.7-1.9-.2-2 8 3 .2 1.6Z"/>
  <path d="M246.1 154.6V153l7.8-3.6v2l-5.5 2.4v-.1.2l5.5 2.3v2l-7.8-3.6Zm15.3-7.8-4.8 13.6-1.8-.1 4.8-13.6 1.8.1Zm7.4 9.6-8.3 2.3.3-2 5.9-1.4h-.1v-.2.1l-5-3.2.3-2 7.1 4.8-.2 1.6Z"/>
  <path d="m268.5 156.3.4-1.5 8.4-1.7-.5 2-6 1 .2-.1-.1.2v-.1l4.8 3.6-.5 2-6.7-5.4Z"/>
  <path d="m283.2 160.5-8.5 1 .6-2 6-.5-.1.1v-.2.1l-4.4-4 .6-1.9 6.3 5.8-.5 1.6Z"/>
  <path d="m283 160.4.5-1.5 8.6-.4-.8 1.9h-6 .1v.2h-.1l4.2 4.2-.8 1.9-5.8-6.3Zm17-1.4-9.6 10.8-1.6-.9 9.6-10.7 1.6.8Zm3.1 11.7-8.5-1 1.1-1.7 6 .9h-.2l.2-.2v.1l-3.5-4.9 1-1.7 4.8 7.1-.9 1.4Z"/>
  <path d="m303 170.6.9-1.4 8.4 1.7-1.2 1.6-5.9-1.3h.1l-.1.2v-.2l3 5.2-1.1 1.6-4.2-7.4Z"/>
  <path d="m314.9 180-8.2-2.3 1.3-1.6 5.7 1.8h-.1l.2-.1v.1l-2.7-5.4 1.3-1.5 3.6 7.8-1.1 1.2Z"/>
  <path d="m314.7 179.8 1.1-1.1 8 3-1.3 1.3-5.6-2.2h.1l-.2.2v-.2l2.3 5.6-1.5 1.4-3-8Zm16.3 5.3-13 6.2-1.2-1.4 13-6.2 1.2 1.4Zm-1.6 11.9-7.4-4 1.6-1.2 5.2 3-.2.1.3-.1h-.1l-1.3-5.8 1.6-1.2 1.7 8.4-1.4 1Z"/>
  <path d="m329.3 196.8 1.4-.8 7.1 4.7-1.7 1.1-5-3.5h.2l-.2.2v-.1l1 5.9-1.8 1-1-8.4Z"/>
  <path d="m336.7 210.2-6.7-5.3 1.8-1 4.6 3.9.1-.1-.4-6 1.8-.8.3 8.5-1.5.8Z"/>
  <path d="m336.6 210 1.5-.7 6.3 5.8-1.8.8-4.3-4.2h-.2.1v6l-2 .8.4-8.6Zm13.1 11-14.4.8-.6-1.7 14.4-.7.6 1.7Zm-6.1 10.5-5.3-6.7 2-.5 3.6 4.8h-.1.2l1-5.9 2-.5-1.8 8.4-1.6.4Z"/>
  <path d="m343.6 231.2 1.6-.2 4.8 7.1-2 .3-3.2-5h-.2.1l-1.4 5.8-2 .3 2.3-8.3Z"/>
  <path d="m345.4 246.4-4.2-7.5 2-.1 2.8 5.3h-.1.3-.1l1.9-5.7 2-.2-3 8-1.6.2Z"/>
  <path d="M345.4 246.1h1.6l3.6 7.8h-2l-2.4-5.5h.1-.2l-2.3 5.5h-2l3.6-7.8Zm7.8 15.3-13.6-4.8.1-1.8 13.6 4.8-.1 1.8Zm-9.6 7.4-2.3-8.3 2 .3 1.4 5.9v-.1h.2-.1l3.2-5 2 .3-4.8 7.1-1.6-.2Z"/>
  <path d="m343.6 268.5 1.6.4 1.7 8.4-2-.5-1-6 .1.2-.2-.1h.1l-3.6 4.8-2-.5 5.3-6.7Z"/>
  <path d="m339.5 283.2-1-8.5 2 .6.5 6-.1-.1h.2-.1l4-4.4 1.9.6-5.8 6.3-1.6-.5Z"/>
  <path d="m339.6 283 1.5.5.4 8.6-1.9-.8v-6 .1h-.2v-.1l-4.2 4.2-1.9-.8 6.3-5.8Zm1.4 17-10.8-9.6.9-1.6 10.7 9.6-.8 1.6Zm-11.7 3.1 1-8.5 1.7 1.1-.9 6v-.2l.2.2h-.1l4.9-3.5 1.7 1-7.1 4.8-1.4-.9Z"/>
  <path d="m329.4 303 1.4.9-1.7 8.4-1.6-1.2 1.3-5.9v.1l-.2-.1h.2l-5.2 3-1.6-1.1 7.4-4.2Z"/>
  <path d="m320 314.9 2.3-8.2 1.6 1.3-1.8 5.7v-.1l.1.2h-.1l5.4-2.7 1.5 1.3-7.8 3.6-1.2-1.1Z"/>
  <path d="m320.2 314.7 1.1 1.1-3 8-1.3-1.3 2.2-5.6v.1l-.2-.2h.2l-5.6 2.3-1.4-1.5 8-3Zm-5.3 16.3-6.2-13 1.4-1.2 6.2 13-1.4 1.2Zm-11.9-1.6 4.1-7.4 1.2 1.6-3 5.2-.1-.2.1.3v-.1l5.8-1.3 1.2 1.6-8.4 1.7-1-1.4Z"/>
  <path d="m303.1 329.3.9 1.4-4.7 7.1-1.1-1.7 3.5-5v.2l-.2-.2h.1l-5.9 1-1-1.8 8.5-1Z"/>
  <path d="m289.8 336.7 5.3-6.7 1 1.8-3.9 4.6.1.1 6-.4.8 1.8-8.5.3-.8-1.5Z"/>
  <path d="m290 336.6.7 1.5-5.8 6.3-.8-1.8 4.2-4.3v-.2.1h-6l-.8-2 8.6.4Zm-11 13.1-.8-14.4 1.7-.6.7 14.4-1.7.6Zm-10.5-6.1 6.7-5.3.5 2-4.8 3.6v-.1.2l5.9 1 .5 2-8.4-1.8-.4-1.6Z"/>
  <path d="m268.8 343.6.2 1.6-7.1 4.8-.3-2 5-3.2v-.2.1l-5.8-1.4-.3-2 8.3 2.3Z"/>
  <path d="m253.6 345.4 7.5-4.2.1 2-5.3 2.8v-.1.3-.1l5.7 1.9.2 2-8-3-.2-1.6Zm-1.4 63.1v1c-.6 0-1 .2-1.3.4-.3.3-.4.7-.4 1.3v1.5c0 .6 0 1.1-.2 1.5-.2.4-.4.8-.7 1a2.8 2.8 0 0 1-1.2.5H247v-1.5c.4 0 .8 0 1-.2a1 1 0 0 0 .5-.5l.2-1v-1.9l.1-.8.5-.7a3 3 0 0 1 1.2-.4 9 9 0 0 1 1.8-.2Zm-5.3-7.2c.6 0 1 0 1.5.2.5 0 .8.2 1.2.5.3.2.5.5.7 1l.2 1.5v1.4c0 .6.1 1 .4 1.3.2.3.7.4 1.3.4v1c-.7 0-1.4 0-1.8-.2a3 3 0 0 1-1.2-.4 1.5 1.5 0 0 1-.5-.7 2.2 2.2 0 0 1-.1-.8v-1.8c0-.4 0-.8-.2-1a1 1 0 0 0-.5-.6l-1-.2v-1.6Zm5.3 6.3v2h-1.8v-2h1.8Zm-7.2.8v1c-.7 0-1.1.1-1.4.4-.3.2-.4.6-.5 1.2v1.5c0 .6-.2 1.1-.3 1.5l-.8 1-1.1.4h-1.6l.1-1.5c.4 0 .8 0 1-.2a1 1 0 0 0 .6-.5l.1-1 .1-1.8c0-.3 0-.6.2-.8l.6-.7a3 3 0 0 1 1.1-.4 9 9 0 0 1 1.9 0Zm-5-7.4a7.7 7.7 0 0 1 1.5.2c.4.1.8.3 1.1.6.3.2.5.5.7 1l.2 1.5-.1 1.5c0 .6 0 1 .3 1.3.3.2.7.4 1.3.4v1l-1.9-.2a3 3 0 0 1-1-.5 1.5 1.5 0 0 1-.6-.7 2.3 2.3 0 0 1 0-.8v-2.9a1 1 0 0 0-.6-.6l-1-.2V401Zm5 6.5v2l-1.8-.2v-1.9l1.8.1Zm-7.2.5-.1 1c-.7 0-1.1 0-1.4.3-.3.2-.5.6-.5 1.2l-.1 1.5-.4 1.5c-.2.4-.5.7-.8.9l-1.2.4h-1.5l.1-1.6 1-.1a1 1 0 0 0 .6-.5l.2-1 .2-1.8.2-.8c.1-.3.3-.5.6-.6a3 3 0 0 1 1.2-.4 9 9 0 0 1 1.9 0Zm-4.7-7.6a7.7 7.7 0 0 1 1.5.3c.4 0 .8.3 1.1.5.3.3.5.6.6 1 .1.5.2 1 .1 1.6l-.1 1.5c0 .6 0 1 .2 1.3.3.3.7.5 1.3.5v1c-.8 0-1.4-.2-1.9-.3a3 3 0 0 1-1-.6 1.5 1.5 0 0 1-.5-.7 2.2 2.2 0 0 1-.1-.8l.1-1.9v-1a1 1 0 0 0-.4-.6l-1-.2.1-1.6Zm4.7 6.7-.1 2-1.8-.3.2-1.9 1.7.2Zm-12.4-.5.1-1a2 2 0 0 0 1.4-.2c.3-.2.5-.6.5-1.2l.2-1.4.5-1.5c.2-.4.5-.7.8-.9a2.8 2.8 0 0 1 1.2-.3 7.7 7.7 0 0 1 1.5 0l-.2 1.6h-1a1 1 0 0 0-.6.6 3 3 0 0 0-.2 1l-.3 1.8a2.2 2.2 0 0 1-.3.8 1.5 1.5 0 0 1-.6.5 3 3 0 0 1-1.1.3h-2Zm4.3 7.9a7.6 7.6 0 0 1-1.5-.4 2.8 2.8 0 0 1-1-.6 2 2 0 0 1-.7-1v-1.6l.2-1.5c.1-.5 0-1-.2-1.3-.2-.3-.6-.5-1.3-.6l.2-1 1.8.5c.5.1.8.3 1 .6.3.2.4.4.5.7v.8l-.2 1.9v1a1 1 0 0 0 .4.6c.2.1.5.3 1 .3l-.2 1.6Zm-4.5-7 .3-1.9 1.8.3-.3 1.9-1.8-.3Zm-7-2.2.2-1c.6.2 1.1.1 1.4-.1.3-.2.5-.6.6-1.2l.3-1.4.5-1.5c.2-.4.5-.7.9-.8a2.8 2.8 0 0 1 1.2-.3 7.7 7.7 0 0 1 1.5.2l-.3 1.5h-1a1 1 0 0 0-.6.5 3 3 0 0 0-.3.9l-.4 1.8c0 .3-.1.6-.3.8l-.6.6a3 3 0 0 1-1.2.2c-.5 0-1.1 0-1.9-.2Zm4 8a7.7 7.7 0 0 1-1.5-.4 2.8 2.8 0 0 1-1-.6 2 2 0 0 1-.6-1.1l.1-1.6.3-1.4c0-.6 0-1-.2-1.4-.2-.3-.6-.5-1.2-.6l.1-1 1.9.5c.4.2.8.4 1 .7l.4.7a2.2 2.2 0 0 1 0 .9l-.4 1.8v1c0 .2.2.5.4.6.2.2.5.3 1 .4l-.3 1.6Zm-4.1-7 .3-2 1.8.4-.4 1.8-1.7-.3Zm-6.9-2.6.2-1c.6.2 1 .1 1.4 0 .3-.3.5-.7.7-1.2l.3-1.4c.1-.7.3-1.2.6-1.5.2-.4.5-.6.9-.8l1.2-.2c.5 0 1 0 1.5.2l-.3 1.6c-.5-.1-.8-.2-1-.1a1 1 0 0 0-.7.4c-.1.3-.3.6-.3 1l-.5 1.8c0 .3-.1.5-.3.7-.1.3-.4.4-.7.6a3 3 0 0 1-1.2.1c-.5 0-1 0-1.8-.2Zm3.5 8.2a7.8 7.8 0 0 1-1.4-.5 2.8 2.8 0 0 1-1-.7 2 2 0 0 1-.5-1.1l.1-1.6.4-1.4c.1-.6 0-1-.1-1.3-.2-.4-.6-.6-1.2-.7l.2-1a9 9 0 0 1 1.8.6c.4.2.8.4 1 .7.2.2.3.5.3.7v.9l-.4 1.8-.1 1a1 1 0 0 0 .3.6c.2.2.6.3 1 .4l-.4 1.6Zm-3.7-7.3.4-1.9 1.7.4-.4 1.9-1.7-.4Zm-6.8-2.9.3-1c.6.2 1 .2 1.4 0 .3-.1.5-.5.7-1.1l.4-1.4.6-1.4a2 2 0 0 1 1-.8l1.2-.1 1.5.3-.4 1.5c-.5-.1-.8-.2-1-.1a1 1 0 0 0-.7.4 3 3 0 0 0-.4.9l-.5 1.8a2.2 2.2 0 0 1-.4.7 1.5 1.5 0 0 1-.7.5 3 3 0 0 1-1.1.2l-2-.4Zm3.2 8.4a7.6 7.6 0 0 1-1.4-.6 2.8 2.8 0 0 1-1-.7 2 2 0 0 1-.4-1.1c0-.5 0-1 .2-1.6l.4-1.4v-1.4c-.2-.3-.6-.5-1.3-.7l.3-1c.8.2 1.3.5 1.8.7l1 .7.3.8-.1.9-.5 1.7a3 3 0 0 0-.1 1 1 1 0 0 0 .3.7l1 .5-.5 1.5Zm-3.5-7.5.6-1.8 1.7.4-.5 1.9-1.8-.5Zm-15.2-6.6-.4.9c-.6-.3-1-.4-1.4-.2-.3.1-.6.5-.8 1l-.6 1.3-.9 1.4a2 2 0 0 1-1 .6 2.8 2.8 0 0 1-1.2 0 7.7 7.7 0 0 1-1.5-.5l.7-1.5 1 .3a1 1 0 0 0 .7-.4l.5-.8.7-1.7.5-.7.7-.4h1.2a6 6 0 0 1 1.8.7Zm-2-8.8a7.6 7.6 0 0 1 1.4.8c.3.2.6.5.8.9.2.3.3.7.3 1.1 0 .5-.2 1-.4 1.6l-.6 1.3c-.3.5-.3 1-.2 1.3.1.4.5.7 1 1l-.3.8-1.7-.9a3 3 0 0 1-.8-.8 1.5 1.5 0 0 1-.2-.9c0-.2 0-.5.2-.8l.7-1.7c.2-.3.3-.6.3-1a1 1 0 0 0-.3-.6c-.1-.2-.4-.4-.8-.6l.6-1.5Zm2.4 8-.8 1.7-1.6-.8.7-1.7 1.7.7Zm-7-2.2-.4.9c-.6-.3-1-.4-1.4-.3-.3.1-.6.5-1 1l-.6 1.3c-.2.6-.5 1-.9 1.3-.3.3-.6.5-1 .5h-1.3a7.6 7.6 0 0 1-1.4-.6l.7-1.4 1 .3a1 1 0 0 0 .7-.3l.6-.8.8-1.7.5-.7c.2-.1.4-.3.8-.3h1.2l1.7.8Zm-1.6-8.8a7.7 7.7 0 0 1 1.3.8c.4.2.7.6.8.9.2.3.3.7.2 1.2 0 .4-.2 1-.4 1.5l-.7 1.3c-.2.5-.3 1-.2 1.3.1.3.5.7 1 1l-.4.8c-.7-.3-1.2-.6-1.6-1a3 3 0 0 1-.8-.8 1.5 1.5 0 0 1-.2-.9 2.2 2.2 0 0 1 .2-.8l.8-1.6.3-1a1 1 0 0 0-.1-.7l-.9-.6.7-1.4Zm2 8-.8 1.7-1.6-.8.8-1.7 1.6.7Zm-6.8-2.5-.5.9c-.6-.4-1-.5-1.4-.4-.3.2-.7.5-1 1l-.6 1.3c-.4.5-.7 1-1 1.2-.4.3-.7.5-1 .5a2.8 2.8 0 0 1-1.3-.1 7.7 7.7 0 0 1-1.4-.6l.7-1.4 1 .3a1 1 0 0 0 .7-.2l.6-.8 1-1.7c0-.2.2-.4.5-.6.2-.2.4-.3.7-.3l1.2.1 1.8.8Zm-1.2-8.9 1.2.9c.4.3.6.6.8 1 .2.3.2.7.2 1.1l-.6 1.5-.7 1.3c-.3.5-.4 1-.3 1.3.1.3.4.7 1 1l-.5.9-1.5-1.1a3 3 0 0 1-.8-1 1.5 1.5 0 0 1-.2-.8l.3-.8 1-1.6.3-.9a1 1 0 0 0-.2-.7c-.1-.3-.4-.5-.8-.7l.8-1.4Zm1.6 8-1 1.8-1.5-1 1-1.6 1.5.9Zm-11.2-5.4.5-.8c.5.3 1 .4 1.3.4.4-.1.7-.4 1-1l.8-1.2c.3-.5.7-1 1-1.2a2 2 0 0 1 1.1-.4 2.8 2.8 0 0 1 1.2.2c.5.1 1 .3 1.4.6l-.8 1.4c-.4-.2-.7-.4-1-.4a1 1 0 0 0-.7.2 3 3 0 0 0-.6.8l-1 1.6a2.2 2.2 0 0 1-.6.6c-.2.2-.4.3-.8.3a3 3 0 0 1-1.1-.2l-1.7-.9Zm.8 9a7.6 7.6 0 0 1-1.3-1 2.8 2.8 0 0 1-.7-1 2 2 0 0 1 0-1.1c0-.5.2-1 .5-1.5l.8-1.2c.3-.6.4-1 .3-1.3 0-.4-.4-.7-1-1l.6-1c.7.5 1.2.8 1.5 1.2.4.3.6.7.7 1 .2.3.2.5.2.8a2.3 2.3 0 0 1-.4.8l-1 1.6a3 3 0 0 0-.3.9 1 1 0 0 0 .1.7c.1.2.4.5.8.7l-.8 1.4Zm-1.3-8.2 1-1.6 1.5 1-1 1.6-1.5-1Zm-5.5-4.8.5-.9c.6.4 1 .6 1.4.5a2 2 0 0 0 1-.9l.8-1.2 1-1.1a2 2 0 0 1 1.2-.4c.4 0 .8 0 1.2.2l1.4.8-1 1.3a2 2 0 0 0-.9-.5 1 1 0 0 0-.7.2 3 3 0 0 0-.7.8l-1 1.5a2.2 2.2 0 0 1-.6.6 1.5 1.5 0 0 1-.8.2 3 3 0 0 1-1.2-.2c-.4-.2-1-.5-1.6-1Zm.3 9a7.7 7.7 0 0 1-1.1-1 2.8 2.8 0 0 1-.7-1 2 2 0 0 1 0-1.3c0-.4.3-.9.6-1.4l.8-1.2c.4-.5.5-1 .4-1.3 0-.4-.3-.7-.9-1l.6-.9 1.5 1.2.6 1c.2.3.2.6.1.8a2.2 2.2 0 0 1-.3.8l-1 1.6a3 3 0 0 0-.5.8 1 1 0 0 0 0 .8l.8.7-.9 1.3Zm-.9-8.3 1.1-1.6 1.5 1-1 1.6-1.6-1ZM153 375l.6-.8c.6.4 1 .6 1.4.5.3 0 .7-.3 1-.8l1-1.1c.3-.5.7-1 1-1.1a2 2 0 0 1 1.2-.4l1.2.3 1.3.8-1 1.3a2 2 0 0 0-1-.5 1 1 0 0 0-.6.2 3 3 0 0 0-.7.7l-1.1 1.5a2.2 2.2 0 0 1-.6.5c-.3.2-.6.2-.9.2a3 3 0 0 1-1.1-.3c-.5-.2-1-.5-1.6-1Zm0 9a7.7 7.7 0 0 1-1.1-1 2.8 2.8 0 0 1-.6-1.1 2 2 0 0 1 0-1.2c0-.4.3-.9.7-1.4l.9-1.1c.3-.5.5-1 .5-1.3-.1-.4-.4-.7-.9-1.1l.6-.8 1.4 1.2.6 1v1a2.2 2.2 0 0 1-.3.7l-1.1 1.4a3 3 0 0 0-.5 1 1 1 0 0 0 0 .7c.2.2.4.5.8.7l-1 1.3Zm-.5-8.2 1.1-1.6 1.5 1.1-1.2 1.5-1.4-1Zm-5.1-5.4.7-.7c.5.4 1 .6 1.3.5.3 0 .7-.3 1-.7l1-1.1a4 4 0 0 1 1.2-1.1 2 2 0 0 1 1.1-.3c.4 0 .8.1 1.2.4l1.3.8-1 1.2-1-.5a1 1 0 0 0-.7.2 3 3 0 0 0-.7.6l-1.2 1.5a2.2 2.2 0 0 1-.6.5 1.5 1.5 0 0 1-.8.2 3 3 0 0 1-1.2-.4l-1.6-1Zm-.4 9a7.7 7.7 0 0 1-1-1.1 2.8 2.8 0 0 1-.7-1 2 2 0 0 1 .1-1.3c.1-.4.4-.8.8-1.3l1-1.2c.3-.4.5-.8.5-1.2 0-.4-.3-.8-.8-1.2l.6-.7 1.4 1.3.5 1a1.5 1.5 0 0 1 0 1c0 .2-.2.4-.4.6l-1.2 1.5-.5.8a1 1 0 0 0 0 .8l.7.8-1 1.2Zm-.1-8.3 1.2-1.4 1.4 1.1-1.2 1.5-1.4-1.2Zm-13.8-14.8-.7.7c-.4-.5-.8-.8-1.2-.8-.4 0-.8.2-1.2.6l-1.1 1-1.3.8a2.1 2.1 0 0 1-1.2 0 2.8 2.8 0 0 1-1.1-.5 7.7 7.7 0 0 1-1.1-1l1.1-1 .9.6a1 1 0 0 0 .7 0l.8-.6 1.4-1.2.7-.4a1.5 1.5 0 0 1 .9 0c.3 0 .7.2 1 .5.5.3 1 .7 1.4 1.3Zm1.9-8.8.9 1.3c.2.4.4.8.4 1.1 0 .4 0 .8-.3 1.2-.2.4-.5.8-1 1.2l-1 1c-.5.4-.7.8-.8 1.1 0 .4.2.8.6 1.3l-.7.6c-.5-.5-1-1-1.1-1.5a3 3 0 0 1-.4-1.1v-.9a2.2 2.2 0 0 1 .6-.6l1.4-1.2c.3-.3.5-.5.6-.8.2-.2.2-.5.1-.7l-.5-1 1.2-1Zm-1.2 8.2-1.4 1.3-1.2-1.4 1.4-1.3 1.2 1.4Zm-5.4-4.9-.8.6c-.4-.5-.8-.7-1.1-.8-.4 0-.8.2-1.3.5l-1 1c-.6.3-1 .6-1.5.7-.4.2-.8.2-1.2 0a2.8 2.8 0 0 1-1-.5 7.7 7.7 0 0 1-1.1-1.1l1.2-1 .8.7a1 1 0 0 0 .8 0c.2 0 .5-.2.8-.5l1.5-1.2.7-.4h.9l1 .6 1.3 1.4Zm2.3-8.7.8 1.3.4 1.2-.3 1.2-1.1 1.1-1.2 1c-.4.3-.7.7-.7 1 0 .4.1.8.5 1.3l-.8.7-1-1.6a3 3 0 0 1-.4-1.2 1.5 1.5 0 0 1 .2-.8c.2-.2.3-.5.6-.6l1.4-1.2.7-.7c.1-.2.2-.5.1-.7 0-.3-.2-.6-.5-1l1.3-1Zm-1.6 8.1-1.5 1.2-1-1.4 1.4-1.2 1.1 1.4Zm-5.1-5.1-.9.6a2 2 0 0 0-1-.9c-.4 0-.9.1-1.3.5l-1.2.8c-.5.4-1 .7-1.4.8H117a2.8 2.8 0 0 1-1-.7 7.7 7.7 0 0 1-1-1.1l1.2-1 .8.8a1 1 0 0 0 .7 0c.3 0 .5-.2.9-.4l1.5-1.1.7-.4h.9l1 .7c.4.3.8.8 1.2 1.4Zm2.6-8.5.8 1.3.3 1.2c0 .3-.2.7-.4 1.1-.2.4-.6.7-1.1 1.1l-1.2.9c-.5.3-.7.7-.8 1 0 .4.1.8.5 1.4l-.8.5c-.5-.6-.8-1.1-1-1.6a3 3 0 0 1-.3-1.1 1.5 1.5 0 0 1 .2-.9l.6-.6 1.5-1 .7-.7c.2-.3.2-.5.2-.8l-.5-1 1.3-.8Zm-2 8-1.5 1-1-1.4 1.5-1 1 1.4Zm-7.8-9.7.8-.6c.4.6.7.9 1 1 .4 0 .9-.1 1.4-.5l1.2-.8 1.4-.6h1.2l1 .7 1 1.2-1.3.9-.8-.8a1 1 0 0 0-.7 0c-.3 0-.6.1-.9.4l-1.5 1c-.3.2-.5.3-.8.3h-.9a3 3 0 0 1-1-.7l-1.1-1.5Zm-3 8.4a7.7 7.7 0 0 1-.8-1.4 2.8 2.8 0 0 1-.2-1.2c0-.3.1-.7.4-1 .2-.4.6-.8 1.2-1.1l1.2-.8c.5-.4.8-.7.8-1 .1-.4 0-.9-.4-1.4l.8-.6a9 9 0 0 1 1 1.7l.2 1.2a1.5 1.5 0 0 1-.3.8 2.2 2.2 0 0 1-.6.6l-1.5 1-.8.6a1 1 0 0 0-.2.8l.5 1-1.4.8Zm2.2-8 1.6-1 1 1.5-1.6 1-1-1.4Zm-3-6.6 1-.6c.2.6.6 1 1 1 .3 0 .7 0 1.2-.3l1.3-.8 1.5-.6 1.1.1c.4.2.7.4 1 .8l1 1.2-1.4.8-.7-.8a1 1 0 0 0-.8 0 3 3 0 0 0-.9.3l-1.6 1a2.2 2.2 0 0 1-.7.2 1.5 1.5 0 0 1-.9 0 3 3 0 0 1-1-.8l-1-1.5Zm-3.4 8.2a7.7 7.7 0 0 1-.6-1.4 2.8 2.8 0 0 1-.2-1.2c0-.4.2-.7.4-1 .3-.4.7-.8 1.3-1l1.2-.8c.5-.3.8-.7 1-1a3 3 0 0 0-.4-1.4l.8-.5.9 1.7c.1.5.2.9.1 1.2 0 .3 0 .6-.3.8a2.2 2.2 0 0 1-.6.6l-1.6 1a3 3 0 0 0-.7.5 1 1 0 0 0-.3.7c0 .3.2.6.4 1l-1.4.8Zm2.7-7.8 1.6-1 1 1.6-1.7 1-1-1.6Zm-2.7-6.8.9-.5c.3.6.6.9 1 1 .3.1.8 0 1.3-.3l1.3-.7c.5-.3 1-.4 1.5-.5.4 0 .8 0 1.1.2.4.2.7.4 1 .8.3.3.6.7.8 1.2l-1.3.8-.7-.8a1 1 0 0 0-.7-.2 3 3 0 0 0-1 .3l-1.6 1a2.2 2.2 0 0 1-.8.2 1.5 1.5 0 0 1-.8-.2 3 3 0 0 1-1-.7l-1-1.6Zm-3.8 8a7.7 7.7 0 0 1-.6-1.3 2.8 2.8 0 0 1-.1-1.3c0-.3.2-.7.5-1 .3-.4.7-.7 1.3-1l1.3-.7c.5-.3.8-.6 1-1 0-.3 0-.7-.4-1.3l.9-.5c.4.7.6 1.3.7 1.8.2.4.2.8.2 1.2 0 .3-.2.5-.4.8a2.2 2.2 0 0 1-.6.5l-1.7.9a3 3 0 0 0-.7.5 1 1 0 0 0-.3.7l.3 1-1.4.8Zm3-7.6 1.7-.9.8 1.6-1.6.9-.9-1.6Zm-2.3-7 .9-.4c.3.6.6 1 1 1 .3.2.7.1 1.2-.2l1.3-.6c.6-.3 1.1-.4 1.6-.4.4 0 .8 0 1.1.2.4.2.7.4 1 .8l.7 1.3-1.4.7-.6-.9a1 1 0 0 0-.7-.1c-.3 0-.6 0-1 .3l-1.6.8a2.2 2.2 0 0 1-.8.2 1.5 1.5 0 0 1-.9-.2 3 3 0 0 1-.9-.8l-1-1.7Zm-4.2 8a7.7 7.7 0 0 1-.5-1.5 2.8 2.8 0 0 1 0-1.2c0-.4.2-.7.5-1 .3-.4.7-.7 1.3-1l1.3-.6c.5-.2.9-.5 1-.9.1-.3 0-.8-.2-1.4l.9-.4.6 1.8c.1.5.2.9.1 1.2a1.5 1.5 0 0 1-.4.7 2.2 2.2 0 0 1-.6.5l-1.7.8a3 3 0 0 0-.8.6 1 1 0 0 0-.3.7c0 .2 0 .6.2 1l-1.4.7Zm3.4-7.6 1.7-.8.8 1.6-1.8.9-.7-1.7Zm-5.1-15.8-1 .3c-.2-.6-.4-1-.8-1.1-.3-.2-.7-.2-1.3 0l-1.4.4-1.6.3c-.4 0-.8-.2-1-.4a2.8 2.8 0 0 1-.9-1 7.7 7.7 0 0 1-.6-1.3l1.5-.5.5.9c.2.2.4.3.7.3.3 0 .6 0 1-.2l1.8-.5a2.2 2.2 0 0 1 .8-.2l.8.4.7.9c.3.4.5 1 .8 1.7Zm5.2-7.2.3 1.4v1.3c-.2.3-.4.7-.8 1-.3.2-.8.5-1.4.6l-1.4.5c-.5.2-1 .4-1 .7-.3.4-.3.8 0 1.5l-1 .3c-.2-.8-.4-1.4-.4-1.9v-1.2l.5-.7.8-.4 1.7-.6c.4 0 .7-.2 1-.4a1 1 0 0 0 .3-.6l-.1-1 1.5-.5Zm-4.4 7-1.8.5-.5-1.7 1.8-.6.5 1.8Zm-3-6.7-1 .3c0-.7-.3-1-.6-1.2-.4-.2-.8-.2-1.4 0l-1.4.3c-.6.2-1.1.2-1.6.2-.4 0-.8-.2-1-.5-.4-.2-.6-.5-.8-1a7.7 7.7 0 0 1-.6-1.4l1.6-.4c0 .5.2.8.4 1a1 1 0 0 0 .7.3l1-.1 1.8-.5a2.2 2.2 0 0 1 .8 0c.3 0 .5 0 .8.3.2.2.5.5.7 1l.6 1.7Zm5.6-7 .2 1.5a2.8 2.8 0 0 1-.1 1.2c-.1.4-.4.7-.7 1l-1.5.6-1.4.4c-.6.1-1 .3-1.1.7-.2.3-.2.7 0 1.4l-1 .2-.4-1.8c0-.5 0-1 .2-1.2.1-.3.3-.6.5-.7a2.2 2.2 0 0 1 .7-.4l1.8-.5c.4 0 .7-.2 1-.3a1 1 0 0 0 .4-.7l-.1-1 1.5-.4Zm-4.7 6.8-1.8.5-.5-1.8 1.9-.5.4 1.8Zm-2.7-6.8-1 .2c0-.6-.3-1-.6-1.2-.3-.2-.8-.3-1.3-.1l-1.5.3c-.6.1-1.1.2-1.5 0-.5 0-.8-.1-1.1-.4a2.8 2.8 0 0 1-.7-1 7.7 7.7 0 0 1-.5-1.5l1.5-.3.4 1a1 1 0 0 0 .7.3h1l1.8-.5h.8c.3 0 .6.2.8.4.2.2.5.5.7 1 .2.4.4 1 .5 1.8Zm5.9-6.8a7.7 7.7 0 0 1 .2 1.5c0 .5 0 .9-.2 1.2-.2.4-.4.7-.8 1l-1.5.5-1.4.3c-.6.2-1 .4-1.2.7-.2.3-.2.8 0 1.4l-1 .2-.3-1.9c0-.5 0-.9.2-1.2.1-.3.3-.5.5-.6.3-.2.5-.3.8-.3l1.8-.5a3 3 0 0 0 1-.3c.2-.1.3-.3.4-.6v-1l1.5-.4Zm-5 6.6-1.8.4-.4-1.8 1.8-.4.4 1.8Zm-3.3-12.1 1-.1c0 .6.3 1 .6 1.2.3.2.7.3 1.3.2l1.4-.3h1.6c.5.1.8.3 1 .6.4.2.6.6.8 1l.3 1.5-1.5.2c0-.4-.2-.7-.4-1a1 1 0 0 0-.6-.3h-1l-1.8.3H96a1.5 1.5 0 0 1-.8-.4 3 3 0 0 1-.6-1c-.2-.5-.4-1-.5-1.9Zm-6.2 6.5a7.7 7.7 0 0 1-.1-1.5l.3-1.2c.1-.3.4-.6.8-.8.4-.3.9-.4 1.5-.6l1.4-.2c.6-.1 1-.3 1.2-.6.2-.3.3-.8.2-1.4l1-.2c.1.8.2 1.4.1 2 0 .4 0 .8-.2 1a1.5 1.5 0 0 1-.6.7 2.3 2.3 0 0 1-.8.3l-1.8.3a3 3 0 0 0-1 .3 1 1 0 0 0-.4.6v1l-1.6.3Zm5.3-6.3 1.9-.3.3 1.8-2 .3-.2-1.8Zm0-7.3 1-.2c0 .7.2 1.1.5 1.3.3.2.8.3 1.3.2l1.5-.1c.6-.1 1.1-.1 1.6 0 .4.1.7.3 1 .6.3.3.5.6.6 1l.3 1.5-1.5.2c0-.4-.2-.7-.3-1a1 1 0 0 0-.7-.4 3 3 0 0 0-1 0l-1.8.2H95a1.5 1.5 0 0 1-.7-.4 3 3 0 0 1-.6-1.1l-.4-1.8Zm-6.5 6.2a7.7 7.7 0 0 1 0-1.6l.3-1.2.8-.8 1.6-.4 1.4-.2c.6 0 1-.3 1.2-.5.3-.3.3-.8.3-1.4l1-.2v2c0 .4-.1.8-.3 1.1a1.5 1.5 0 0 1-.6.6 2.2 2.2 0 0 1-.8.3l-1.8.2a3 3 0 0 0-1 .3 1 1 0 0 0-.5.5v1l-1.6.3Zm5.6-6.1 1.9-.3.2 1.8-2 .3-.1-1.8Zm.3-7.4h1c0 .6.2 1 .5 1.3.3.2.7.3 1.3.2h1.4c.7-.1 1.2 0 1.6 0 .4.2.8.4 1 .7l.6 1 .2 1.6-1.5.1c0-.4-.2-.8-.3-1a1 1 0 0 0-.6-.5 3 3 0 0 0-1 0l-1.8.1a2.2 2.2 0 0 1-.9 0 1.5 1.5 0 0 1-.7-.5 3 3 0 0 1-.5-1.1 5 5 0 0 1-.3-1.9Zm-6.7 6a7.7 7.7 0 0 1 0-1.6c0-.5.1-.8.3-1.2a2 2 0 0 1 1-.8c.3-.1.8-.3 1.5-.3l1.4-.1c.6 0 1-.2 1.3-.5.2-.3.3-.8.3-1.4h1v1.8l-.4 1.2a1.5 1.5 0 0 1-.6.6l-.8.2-1.9.1-1 .2a1 1 0 0 0-.5.6v1l-1.7.1Zm5.8-5.9 1.9-.2.1 1.8-1.9.2-.1-1.8Zm.6-7.3h1c0 .6.2 1 .5 1.3.2.2.7.3 1.3.3h1.4c.6 0 1.2 0 1.6.2.4.1.7.3 1 .6l.5 1.2.2 1.5h-1.6l-.2-1a1 1 0 0 0-.6-.5 3 3 0 0 0-1 0h-1.9l-.8-.1a1.5 1.5 0 0 1-.7-.5 3 3 0 0 1-.4-1.1c-.2-.5-.2-1.1-.3-2Zm-7 5.6a7.7 7.7 0 0 1 .1-1.6c0-.4.2-.8.4-1.1a2 2 0 0 1 1-.7c.4-.2.9-.3 1.5-.3l1.5-.1c.6 0 1-.2 1.3-.4.2-.3.3-.7.3-1.4h1v1.9l-.5 1.1a1.5 1.5 0 0 1-.7.6l-.8.1-1.8.1a3 3 0 0 0-1 .2 1 1 0 0 0-.5.5c-.2.2-.2.6-.2 1h-1.6Zm6.1-5.6h2v1.7l-2 .1v-1.8Zm1.7-16.5-1-.1c0-.6 0-1.1-.2-1.4-.3-.3-.7-.4-1.3-.5l-1.4-.1-1.6-.4c-.4-.3-.7-.5-.8-.9a2.8 2.8 0 0 1-.4-1.1 7.7 7.7 0 0 1 0-1.6l1.6.2v1a1 1 0 0 0 .6.6l1 .2 1.8.2.8.2.6.7c.2.2.3.6.3 1.1a9 9 0 0 1 0 1.9Zm7.7-4.6a7.7 7.7 0 0 1-.3 1.5 2.8 2.8 0 0 1-.6 1.1 2 2 0 0 1-1 .6c-.4.1-1 .2-1.6 0H96c-.6-.1-1 0-1.4.2-.3.2-.4.7-.5 1.3l-1-.1c0-.8.2-1.4.4-1.9l.5-1c.2-.3.5-.4.8-.5h.8l1.8.1h1c.3 0 .5-.2.6-.4.2-.3.3-.6.3-1l1.6.1Zm-6.8 4.7-1.9-.2.2-1.8 1.9.2-.2 1.8Zm-.1-7.3-1-.1c.1-.7 0-1.1-.1-1.4-.3-.3-.7-.5-1.3-.6l-1.4-.2-1.5-.5c-.4-.2-.7-.5-.9-.8a2.8 2.8 0 0 1-.3-1.2 7.7 7.7 0 0 1 .1-1.6l1.6.3v1a1 1 0 0 0 .5.6l1 .3 1.8.2c.3 0 .5.2.8.3l.6.6.2 1.2a9 9 0 0 1 0 1.9Zm8-4.2a7.7 7.7 0 0 1-.4 1.5c-.2.4-.4.8-.7 1a2 2 0 0 1-1 .6h-1.6l-1.4-.2c-.6-.1-1 0-1.4.2-.3.2-.5.6-.6 1.2l-1-.1.5-1.8c.2-.5.4-.9.6-1a1.5 1.5 0 0 1 .7-.5h.9l1.8.2h1a1 1 0 0 0 .6-.4c.2-.2.3-.5.4-1l1.5.3Zm-7 4.3-2-.2.3-1.8 1.9.3-.3 1.7Zm.2-7.2-1-.2c.1-.7 0-1.1-.1-1.4-.2-.3-.6-.6-1.2-.7l-1.4-.2-1.5-.6c-.4-.2-.7-.5-.8-.9a2.8 2.8 0 0 1-.3-1.2 7.7 7.7 0 0 1 .2-1.5l1.5.3v1a1 1 0 0 0 .5.7l1 .3 1.7.3c.3 0 .6.2.8.3l.6.7.2 1.2a9 9 0 0 1-.2 1.9Zm8-3.9a7.7 7.7 0 0 1-.4 1.5 2.8 2.8 0 0 1-.7 1c-.2.3-.6.4-1 .5h-1.6l-1.4-.3c-.6-.2-1-.1-1.4 0-.3.3-.5.7-.6 1.3l-1-.2.5-1.8.7-1 .7-.4h.9l1.8.4h1c.2 0 .5-.1.6-.3.2-.2.3-.6.4-1l1.6.3Zm-7.1 4-1.9-.3.4-1.8 1.8.4-.3 1.7Zm1.7-12.3 1 .2v1.4c.3.3.7.5 1.2.7l1.4.3 1.5.6c.4.3.6.6.8 1a2.8 2.8 0 0 1 .1 1.2c0 .4 0 1-.2 1.5l-1.5-.4v-1a1 1 0 0 0-.4-.7 3 3 0 0 0-.9-.3l-1.8-.5a2.2 2.2 0 0 1-.8-.3 1.5 1.5 0 0 1-.5-.7 3 3 0 0 1-.1-1.2c0-.5 0-1.1.2-1.8Zm-8.2 3.4a7.7 7.7 0 0 1 .5-1.4c.2-.4.4-.8.7-1a2 2 0 0 1 1.1-.5c.5 0 1 0 1.6.2l1.4.3c.6.2 1 .1 1.4 0 .3-.2.5-.6.7-1.3l1 .3-.7 1.8-.7 1a1.5 1.5 0 0 1-.8.3H95l-1.8-.5a3 3 0 0 0-1 0 1 1 0 0 0-.6.3c-.2.2-.4.5-.5 1l-1.5-.5Zm7.4-3.7 1.8.5-.4 1.7-1.9-.4.5-1.8Zm2.9-6.7 1 .3c-.2.6-.2 1 0 1.4.1.3.5.5 1 .7l1.4.4c.7.2 1.1.4 1.5.7.3.3.6.6.7 1l.1 1.2a7.7 7.7 0 0 1-.3 1.5l-1.5-.5c.2-.4.2-.7.1-1a1 1 0 0 0-.4-.6 3 3 0 0 0-.9-.4l-1.7-.6a2.2 2.2 0 0 1-.8-.3 1.5 1.5 0 0 1-.5-.8 3 3 0 0 1 0-1.1c0-.5 0-1.2.3-1.9Zm-8.4 3a7.7 7.7 0 0 1 .6-1.3c.2-.4.4-.8.7-1a2 2 0 0 1 1.1-.4c.5 0 1 0 1.6.2l1.4.4c.6.2 1 .2 1.4 0 .3-.1.5-.5.7-1.2l1 .3a9 9 0 0 1-.7 1.8 3 3 0 0 1-.8 1l-.8.3a2.2 2.2 0 0 1-.8-.1l-1.8-.6a3 3 0 0 0-1-.1 1 1 0 0 0-.6.3c-.2.2-.4.5-.5 1l-1.5-.5Zm7.5-3.3 1.8.6-.5 1.7-1.8-.5.5-1.8Zm3.2-6.6 1 .4c-.2.6-.2 1 0 1.4 0 .3.5.6 1 .8l1.4.4c.6.2 1 .5 1.4.8l.7 1v1.2a7.6 7.6 0 0 1-.3 1.5l-1.5-.6c.1-.4.2-.7.1-1a1 1 0 0 0-.3-.6 3 3 0 0 0-1-.5l-1.7-.6a2.2 2.2 0 0 1-.7-.4 1.5 1.5 0 0 1-.4-.7 3 3 0 0 1-.1-1.2c0-.5.2-1.1.4-1.9Zm-8.5 2.7a7.7 7.7 0 0 1 .6-1.3 2.8 2.8 0 0 1 .9-1 2 2 0 0 1 1-.3c.5 0 1 0 1.7.3l1.3.4c.6.2 1 .2 1.4.1.3-.2.6-.5.8-1.2l1 .4-.8 1.7a3 3 0 0 1-.8 1 1.5 1.5 0 0 1-.8.2 2.3 2.3 0 0 1-.9-.1l-1.7-.6c-.4-.2-.7-.2-1-.2a1 1 0 0 0-.7.3c-.2.1-.3.4-.5.9l-1.5-.6Zm7.7-3 1.8.7-.6 1.7-1.8-.7.6-1.7Zm3.6-6.4.8.4c-.2.6-.2 1 0 1.4 0 .3.4.6 1 .8l1.3.5 1.4.8c.3.3.5.7.6 1v1.3a7.7 7.7 0 0 1-.4 1.4l-1.5-.5c.2-.5.3-.8.2-1a1 1 0 0 0-.3-.7 2 2 0 0 0-.9-.5l-1.7-.7a2.2 2.2 0 0 1-.7-.4 1.5 1.5 0 0 1-.4-.8v-1.2c0-.5.2-1 .5-1.8Zm-8.7 2.3.7-1.4a2.8 2.8 0 0 1 .8-.8 2 2 0 0 1 1.2-.3c.4 0 1 0 1.5.3l1.4.6c.5.2 1 .2 1.3 0 .3 0 .6-.4.9-1l.9.3-.8 1.7a3 3 0 0 1-.9.9 1.5 1.5 0 0 1-.8.2 2.2 2.2 0 0 1-.8-.1l-1.7-.7a3 3 0 0 0-1-.2 1 1 0 0 0-.7.2l-.6.9-1.4-.6Zm7.8-2.6 1.7.7-.6 1.6-1.8-.7.7-1.6Zm8.1-14.5-.8-.5c.3-.5.4-1 .3-1.3-.1-.4-.4-.7-1-1l-1.2-.7c-.6-.3-1-.7-1.2-1-.3-.4-.5-.7-.5-1.1l.1-1.2a7.7 7.7 0 0 1 .7-1.4l1.3.8-.3 1a1 1 0 0 0 .2.7l.8.6 1.6.9.7.5.3.8c0 .3 0 .7-.2 1.2a9 9 0 0 1-.8 1.7Zm9-1a7.7 7.7 0 0 1-1 1.2 2.8 2.8 0 0 1-1 .7c-.3.2-.7.2-1.1.2-.4 0-1-.3-1.5-.6l-1.3-.7c-.5-.3-1-.4-1.3-.3-.3 0-.7.4-1 1l-.8-.5c.3-.7.7-1.2 1-1.6a3 3 0 0 1 1-.7c.3-.2.6-.2.8-.2.3 0 .6.2.8.3l1.6 1 1 .3a1 1 0 0 0 .7-.2c.2-.1.4-.4.6-.8l1.4.8Zm-8.2 1.5-1.6-1 .9-1.5 1.6.9-.9 1.6Zm2.9-6.7-.9-.6c.4-.5.5-1 .4-1.3 0-.4-.4-.7-.9-1l-1.2-.8c-.5-.4-1-.7-1.2-1-.2-.4-.4-.8-.4-1.2a2.8 2.8 0 0 1 .2-1.2 7.6 7.6 0 0 1 .7-1.3l1.3.8-.4 1a1 1 0 0 0 .2.7l.8.6 1.6 1 .6.6.3.8c0 .3 0 .7-.2 1.2a9 9 0 0 1-1 1.7Zm8.9-.7a7.7 7.7 0 0 1-1 1.2 2.8 2.8 0 0 1-1 .7c-.3.1-.7.2-1.1 0-.4 0-1-.2-1.5-.6l-1.2-.7c-.5-.3-1-.5-1.3-.4-.3 0-.7.4-1 1l-.9-.6 1.2-1.5a3 3 0 0 1 1-.7c.2-.1.5-.2.8-.1.3 0 .5.2.7.3l1.6 1 1 .4.7-.1.7-.8 1.3.9Zm-8.1 1.1-1.7-1 1-1.5 1.6 1-1 1.5Zm3.1-6.5-.8-.6c.4-.5.5-1 .4-1.3 0-.4-.3-.7-.8-1l-1.2-1c-.5-.3-.9-.6-1.1-1-.3-.4-.4-.7-.4-1.1a2.8 2.8 0 0 1 .2-1.2l.8-1.4 1.3 1c-.3.3-.4.6-.4.9a1 1 0 0 0 .1.7c.2.2.4.5.8.7l1.5 1 .6.6.2.9c0 .3 0 .7-.2 1.1l-1 1.7Zm9-.3a7.6 7.6 0 0 1-1 1.2 2.8 2.8 0 0 1-1 .6c-.4.1-.8.2-1.2 0-.5 0-1-.3-1.5-.6l-1.2-.9c-.5-.3-.9-.5-1.2-.4-.4 0-.8.4-1.1.9l-.8-.6 1.2-1.4a3 3 0 0 1 1-.7c.3-.1.6-.1.8 0l.8.3 1.5 1c.3.3.6.4.9.5h.7c.2 0 .5-.5.8-.8l1.3.9Zm-8.2.8-1.6-1.1 1-1.5 1.6 1.1-1 1.5Zm6.5-10.6.8.6c-.4.5-.5 1-.5 1.3 0 .3.3.7.8 1l1.2 1c.5.3.8.7 1 1 .3.5.4.8.4 1.2a2.8 2.8 0 0 1-.3 1.2 7.7 7.7 0 0 1-.8 1.3l-1.3-1c.3-.3.4-.6.5-.9a1 1 0 0 0-.2-.7 3 3 0 0 0-.7-.7l-1.4-1.1a2.2 2.2 0 0 1-.6-.7 1.5 1.5 0 0 1-.2-.8l.3-1.1 1-1.6Zm-8.9-.2 1-1c.4-.4.7-.6 1.1-.7a2 2 0 0 1 1.2 0c.4.1.9.4 1.4.8l1.1.9c.5.3 1 .5 1.3.4.3 0 .7-.3 1.1-.8l.8.6-1.3 1.4a3 3 0 0 1-1 .6h-.9a2.2 2.2 0 0 1-.7-.3l-1.5-1.2a3 3 0 0 0-.8-.5 1 1 0 0 0-.8 0c-.2.2-.5.4-.7.8l-1.3-1Zm8.2-.4 1.5 1.2-1 1.4-1.6-1.2 1.1-1.4Zm5.4-5 .8.7a2 2 0 0 0-.6 1.2c0 .4.3.8.7 1.2l1.1.9c.5.4.9.8 1 1.2.3.4.4.8.4 1.1a2.8 2.8 0 0 1-.4 1.2l-.9 1.3-1.2-1c.3-.4.5-.7.5-1a1 1 0 0 0 0-.7 3 3 0 0 0-.7-.7l-1.5-1.2a2.2 2.2 0 0 1-.5-.7 1.5 1.5 0 0 1-.2-.8c0-.3.2-.7.4-1.1.2-.5.6-1 1.1-1.6Zm-9-.5a7.7 7.7 0 0 1 1.2-1.1 2.8 2.8 0 0 1 1-.6l1.2.1c.5.1 1 .4 1.4.8l1.1 1c.5.3.9.5 1.2.5.4 0 .8-.3 1.2-.8l.8.7-1.4 1.3a3 3 0 0 1-1 .6 1.5 1.5 0 0 1-.9 0 2.2 2.2 0 0 1-.7-.5l-1.4-1.2a3 3 0 0 0-.9-.5 1 1 0 0 0-.7 0c-.3.1-.5.3-.8.7l-1.2-1Zm8.3 0 1.5 1.2-1.2 1.3-1.5-1.2 1.2-1.4Zm5.6-4.8.8.7c-.5.4-.7.8-.7 1.2 0 .4.3.8.7 1.2l1 1c.5.4.9.8 1 1.2.3.4.3.8.3 1.2a2.8 2.8 0 0 1-.4 1.1 7.7 7.7 0 0 1-1 1.2l-1.1-1c.3-.4.5-.7.5-1a1 1 0 0 0 0-.7 3 3 0 0 0-.7-.7l-1.3-1.3a2.2 2.2 0 0 1-.5-.7 1.5 1.5 0 0 1-.2-.8c0-.3.2-.7.5-1.1.2-.5.6-1 1.1-1.5Zm-8.9-1a7.7 7.7 0 0 1 1.2-1c.3-.3.7-.4 1-.5l1.2.1c.5.2.9.5 1.4 1l1 .9c.5.4.9.6 1.2.6.4 0 .8-.3 1.2-.7l.8.6-1.4 1.3a3 3 0 0 1-1.1.5 1.5 1.5 0 0 1-.9 0 2.2 2.2 0 0 1-.7-.5l-1.3-1.2a3 3 0 0 0-.8-.6 1 1 0 0 0-.8 0c-.2 0-.5.3-.8.6l-1.2-1Zm8.2.4 1.4 1.3-1.2 1.3-1.4-1.3 1.2-1.3Zm5.9-4.5.7.7c-.5.4-.7.8-.7 1.2 0 .4.2.8.6 1.2l1 1 1 1.3c.1.4.2.8.1 1.2 0 .4-.2.7-.4 1.1a7.7 7.7 0 0 1-1 1.2l-1.1-1.1.6-.9a1 1 0 0 0 0-.7 3 3 0 0 0-.7-.8l-1.3-1.3a2.2 2.2 0 0 1-.4-.7 1.5 1.5 0 0 1-.1-.9c0-.3.2-.7.4-1 .3-.5.7-1 1.3-1.5Zm-8.9-1.4 1.2-1a2.8 2.8 0 0 1 1.1-.4c.4 0 .8 0 1.2.2.4.1.8.5 1.3 1l1 1c.4.4.8.6 1.2.6.4 0 .8-.2 1.2-.7l.7.7c-.5.6-1 1-1.4 1.2a3 3 0 0 1-1.1.5 1.5 1.5 0 0 1-.9 0 2.2 2.2 0 0 1-.7-.6l-1.3-1.3a3 3 0 0 0-.8-.6 1 1 0 0 0-.7 0c-.3 0-.5.2-.9.5l-1-1Zm8.2.7 1.4 1.4-1.3 1.2-1.4-1.3 1.3-1.3Zm13.3-10-.6-.7c.5-.4.8-.8.9-1.2 0-.3-.2-.7-.5-1.2l-.9-1.2c-.4-.5-.6-1-.7-1.4v-1.2c0-.3.3-.7.6-1a7.7 7.7 0 0 1 1.1-1l1 1.2c-.4.3-.6.5-.7.8a1 1 0 0 0 0 .7c0 .3.1.6.4.9l1.1 1.5.4.7v.9a3 3 0 0 1-.7 1 9 9 0 0 1-1.4 1.3Zm8.6 2.6a7.7 7.7 0 0 1-1.3.8l-1.2.3c-.4 0-.8 0-1.2-.3-.3-.3-.7-.6-1-1.1l-1-1.2c-.3-.5-.7-.7-1-.8-.4 0-.8.1-1.4.5l-.5-.8c.6-.5 1.1-.8 1.6-1a3 3 0 0 1 1.1-.3 1.5 1.5 0 0 1 .9.2l.6.6 1 1.5.8.7c.2.1.4.2.7.1.3 0 .6-.2 1-.4l.9 1.2Zm-8-1.8-1.2-1.5 1.4-1.1 1.2 1.5-1.5 1.1Zm5.3-5-.6-.8c.5-.4.8-.8.9-1.1 0-.4 0-.8-.4-1.3l-.8-1.2c-.4-.5-.6-1-.7-1.4v-1.2l.7-1a7.7 7.7 0 0 1 1.2-1l.9 1.3c-.4.2-.6.5-.8.7a1 1 0 0 0 0 .8l.4.8 1 1.6.4.7-.1 1a3 3 0 0 1-.7 1 9 9 0 0 1-1.4 1Zm8.4 3-1.3.7a2.8 2.8 0 0 1-1.2.2 2 2 0 0 1-1.2-.4c-.3-.2-.7-.6-1-1.1l-.9-1.2c-.3-.5-.6-.8-1-.9-.4 0-.8 0-1.3.4l-.6-.8 1.7-.9a3 3 0 0 1 1.1-.3c.4 0 .6.1.9.3.2.2.4.3.5.6l1 1.5.7.8a1 1 0 0 0 .8.2l1-.5.8 1.3Zm-8-2.3-1-1.5 1.5-1 1 1.5-1.4 1Zm5.6-4.7-.5-.9c.5-.3.8-.6 1-1 0-.4-.1-.8-.4-1.3l-.8-1.2-.6-1.5.1-1.2.7-1a7.7 7.7 0 0 1 1.3-.9l.8 1.4c-.4.2-.7.4-.8.7a1 1 0 0 0-.1.7c0 .3.2.6.4.9l1 1.6.2.8v.8a3 3 0 0 1-.8 1 9 9 0 0 1-1.5 1.1Zm8.3 3.3-1.4.7c-.4.2-.8.2-1.2.2-.4 0-.7-.2-1-.5-.4-.2-.8-.6-1.1-1.2l-.8-1.2c-.3-.5-.6-.8-1-.9-.3 0-.8 0-1.3.4l-.5-.9 1.6-.8a3 3 0 0 1 1.2-.2c.4 0 .6.1.8.3.3.1.4.3.6.6l1 1.6.6.7c.2.2.4.3.7.3.3 0 .6-.2 1-.4l.8 1.3Zm-7.8-2.5-1-1.7 1.5-.9 1 1.6-1.5 1Zm10.3-7.1.4.8-1 1c0 .4 0 .8.3 1.4l.7 1.2.6 1.5c0 .5 0 .8-.2 1.2l-.7 1-1.3.8-.8-1.4.8-.6a1 1 0 0 0 .2-.8 3 3 0 0 0-.4-.9l-.9-1.6a2.2 2.2 0 0 1-.2-.8l.1-.8.8-1 1.6-1Zm-8.2-3.7 1.4-.6c.4-.2.9-.2 1.2-.2.4 0 .8.2 1.1.5.4.3.7.7 1 1.3l.7 1.2c.3.6.6.9 1 1 .3 0 .8 0 1.3-.3l.5.8-1.7.8a3 3 0 0 1-1.2.2 1.5 1.5 0 0 1-.8-.4 2.2 2.2 0 0 1-.5-.6l-1-1.6a3 3 0 0 0-.5-.8 1 1 0 0 0-.7-.3c-.3 0-.6.1-1 .4l-.8-1.4Zm7.7 2.9 1 1.6-1.6 1-1-1.8 1.6-.8Zm7-2.4.4.9c-.6.2-1 .6-1 1-.1.3 0 .7.2 1.2l.6 1.3c.3.6.5 1.1.5 1.5 0 .5 0 .9-.2 1.2-.2.4-.4.7-.8 1a7.6 7.6 0 0 1-1.3.7l-.7-1.4.8-.6a1 1 0 0 0 .2-.7 3 3 0 0 0-.3-1l-.8-1.6a2.2 2.2 0 0 1-.2-.8l.1-.9.8-.9 1.7-1Zm-8-4.1 1.4-.6h1.2c.4 0 .8.2 1.1.5l1 1.3.6 1.3c.2.5.5.9.9 1 .3.1.8 0 1.4-.3l.4 1-1.8.6a3 3 0 0 1-1.2.1 1.5 1.5 0 0 1-.7-.3 2.2 2.2 0 0 1-.5-.7l-.9-1.7a3 3 0 0 0-.5-.8 1 1 0 0 0-.7-.3l-1 .3-.7-1.4Zm7.6 3.2.8 1.8-1.6.8-.9-1.8 1.7-.8Zm7-2.1.4 1c-.6.2-1 .5-1 .9-.2.3-.2.7 0 1.3l.7 1.3c.2.6.4 1.1.4 1.6a2 2 0 0 1-.3 1.1 2.8 2.8 0 0 1-.8.9l-1.4.7-.6-1.4.9-.6a1 1 0 0 0 .2-.7 3 3 0 0 0-.3-1l-.7-1.7a2.2 2.2 0 0 1-.2-.8 1.5 1.5 0 0 1 .2-.8c.2-.3.4-.6.8-.8l1.7-1Zm-7.8-4.4a7.7 7.7 0 0 1 1.5-.5 2.8 2.8 0 0 1 1.2 0c.4 0 .7.3 1 .6l.9 1.3.6 1.4c.2.5.5.9.8 1 .4.1.8 0 1.4-.2l.4 1a9 9 0 0 1-1.8.5 3 3 0 0 1-1.2 0 1.5 1.5 0 0 1-.7-.3 2.2 2.2 0 0 1-.5-.7l-.7-1.7a3 3 0 0 0-.5-.9 1 1 0 0 0-.7-.3c-.3 0-.6 0-1 .3l-.7-1.5Zm7.4 3.6.8 1.8-1.6.7-.8-1.8 1.6-.7Zm7.1-1.8.4 1c-.6.2-1 .5-1.1.8-.1.4-.1.8.1 1.4l.5 1.3c.3.6.4 1.1.4 1.6 0 .4-.1.8-.4 1.1a2.8 2.8 0 0 1-.8.9l-1.4.6-.6-1.4 1-.6a1 1 0 0 0 .2-.7l-.3-1-.6-1.7a2.2 2.2 0 0 1-.2-.8c0-.3.1-.5.3-.8.2-.3.5-.6.9-.8l1.7-.9Zm-7.5-4.7a7.7 7.7 0 0 1 1.5-.5 2.8 2.8 0 0 1 1.2 0l1 .7c.3.3.6.8.8 1.4l.5 1.3c.2.6.5 1 .8 1.1.4.2.8.1 1.4-.1l.4 1a9 9 0 0 1-1.8.4 3 3 0 0 1-1.2 0 1.5 1.5 0 0 1-.8-.4 2.3 2.3 0 0 1-.4-.7l-.7-1.8a3 3 0 0 0-.4-.8 1 1 0 0 0-.7-.4c-.3 0-.6 0-1 .2l-.6-1.4Zm7.2 3.9.7 1.8-1.7.6-.6-1.8 1.6-.6Zm16.2-3.9-.2-.9c.6-.1 1-.4 1.2-.7.2-.3.2-.7 0-1.3l-.3-1.4c-.1-.6-.1-1.2 0-1.6 0-.4.1-.8.4-1.1a2.8 2.8 0 0 1 1-.7l1.4-.5.4 1.5-1 .5a1 1 0 0 0-.3.6v1l.5 1.8v.8a1.5 1.5 0 0 1-.3.8 3 3 0 0 1-1 .7 9 9 0 0 1-1.8.6Zm6.8 5.9-1.5.2a2.8 2.8 0 0 1-1.2-.2c-.4-.2-.7-.4-1-.8l-.5-1.5-.3-1.4c-.2-.6-.4-1-.7-1.1-.3-.2-.8-.3-1.4-.1l-.2-1 1.8-.3 1.2.2c.3.1.6.3.7.5.2.3.3.5.3.8l.5 1.8c0 .4.2.7.3 1l.6.4h1l.4 1.5Zm-6.6-5-.4-1.8 1.7-.4.5 1.9-1.8.4Zm6.9-2.4-.2-1c.6 0 1-.3 1.2-.6.2-.3.3-.7.2-1.3l-.3-1.4c-.1-.7-.1-1.2 0-1.6 0-.5.2-.8.5-1.1l1-.7a7.7 7.7 0 0 1 1.5-.4l.3 1.6c-.5 0-.8.2-1 .3a1 1 0 0 0-.4.7v1l.4 1.8v.8c0 .3-.2.5-.4.8a3 3 0 0 1-1 .6 9 9 0 0 1-1.8.5Zm6.5 6.1a7.6 7.6 0 0 1-1.5.1 2.8 2.8 0 0 1-1.2-.2l-.9-.8-.5-1.5-.3-1.4c0-.6-.3-1-.6-1.2-.3-.2-.7-.3-1.4-.2l-.1-1c.7-.1 1.3-.2 1.8-.1.5 0 1 0 1.2.2.3.1.5.3.7.6l.3.7.3 1.9.3.9a1 1 0 0 0 .6.5h1l.3 1.5Zm-6.4-5.2-.3-1.9 1.8-.3.3 1.9-1.8.3Zm7-2.1-.1-1c.6 0 1-.3 1.3-.6.2-.3.2-.7.2-1.3l-.2-1.4c-.1-.7-.1-1.2 0-1.6 0-.5.3-.8.6-1a2.8 2.8 0 0 1 1-.7l1.5-.3.2 1.5c-.4 0-.8.2-1 .4a1 1 0 0 0-.4.6v1l.3 1.8v.8c0 .2-.3.5-.5.8a3 3 0 0 1-1 .6l-1.9.4Zm6.3 6.4a7.7 7.7 0 0 1-1.5 0 2.8 2.8 0 0 1-1.2-.3c-.4-.2-.7-.4-.9-.8l-.4-1.5-.2-1.5c-.1-.6-.3-1-.6-1.2-.3-.2-.7-.3-1.4-.2l-.1-1h1.9c.5 0 .9 0 1.2.2l.6.6.2.8.3 1.8c0 .4.1.7.3 1a1 1 0 0 0 .5.5h1l.3 1.6Zm-6.2-5.5-.2-1.9 1.8-.2.2 1.8-1.8.3Zm12.3-2.4v1c-.5 0-1 .2-1.2.5-.2.3-.3.8-.3 1.3l.2 1.5-.1 1.6a2 2 0 0 1-.7 1 2.8 2.8 0 0 1-1 .6 7.7 7.7 0 0 1-1.5.2l-.2-1.5c.5 0 .8-.2 1-.3a1 1 0 0 0 .4-.6v-2.9a2.2 2.2 0 0 1 0-.8c0-.2.2-.5.5-.7a3 3 0 0 1 1-.5l1.9-.4Zm-6-6.6a7.7 7.7 0 0 1 1.6 0c.4 0 .8.1 1.1.3.4.2.6.5.8.9l.4 1.5.1 1.5c0 .6.3 1 .5 1.2.3.3.8.4 1.4.3l.1 1h-1.9a3 3 0 0 1-1.1-.3 1.5 1.5 0 0 1-.6-.7 2.3 2.3 0 0 1-.3-.8l-.1-1.8a3 3 0 0 0-.2-1 1 1 0 0 0-.6-.5h-1l-.2-1.6Zm6 5.7v2h-1.7l-.2-1.8 1.8-.2Zm7.2.6v1c-.6 0-1 .2-1.2.4-.3.3-.4.7-.4 1.3l.1 1.5c0 .6 0 1.1-.2 1.6a2 2 0 0 1-.6 1l-1.1.5a7.7 7.7 0 0 1-1.6.2v-1.6l1-.2a1 1 0 0 0 .5-.6v-3.7l.6-.7a3 3 0 0 1 1-.5l2-.2Zm-5.6-7a7.7 7.7 0 0 1 1.5.1 2.8 2.8 0 0 1 1.2.4c.3.2.5.6.7 1 .2.4.3.9.3 1.5l.1 1.5c0 .6.2 1 .4 1.2.3.3.8.4 1.4.4v1l-1.8-.1a3 3 0 0 1-1.2-.4 1.5 1.5 0 0 1-.5-.7 2.2 2.2 0 0 1-.2-.8l-.1-1.8c0-.4 0-.7-.2-1a1 1 0 0 0-.5-.5l-1-.2-.1-1.5Zm5.6 6v2H245l-.1-1.9h1.8Zm7.3 1v1c-.6 0-1.1.1-1.4.4-.2.2-.3.7-.3 1.3v1.4c0 .6-.1 1.2-.3 1.6a2 2 0 0 1-.7 1l-1.1.4a7.7 7.7 0 0 1-1.5.1v-1.5l1-.2a1 1 0 0 0 .5-.6l.1-1v-1.8c0-.3 0-.6.2-.8 0-.3.2-.5.5-.7a3 3 0 0 1 1.1-.5l1.9-.1Zm-5.3-7.2 1.5.1a2.8 2.8 0 0 1 1.1.5c.3.2.6.5.7 1 .2.4.3.9.3 1.5V90c0 .6 0 1 .3 1.3.3.2.8.4 1.4.4v1a9 9 0 0 1-1.9-.2 3 3 0 0 1-1.1-.5 1.5 1.5 0 0 1-.5-.6 2.2 2.2 0 0 1-.2-.8v-2l-.1-.9a1 1 0 0 0-.5-.5c-.3-.2-.6-.2-1-.2v-1.6Zm5.3 6.3v1.9h-1.8v-2h1.8Zm7.2 1.2v1c-.7 0-1.1 0-1.4.3-.2.3-.4.7-.4 1.3v1.4l-.4 1.6a2 2 0 0 1-.7 1l-1.2.3-1.5.1v-1.6l1-.1a1 1 0 0 0 .6-.6l.2-1v-1.8a2.2 2.2 0 0 1 .2-.8l.6-.6a3 3 0 0 1 1.1-.4l2-.1Zm-5-7.4a7.7 7.7 0 0 1 1.5.2 2.8 2.8 0 0 1 1.2.5c.3.3.5.6.6 1 .2.4.2 1 .2 1.6V90c-.1.6 0 1 .2 1.3.3.3.7.5 1.4.5v1c-.8 0-1.5-.1-2-.3a3 3 0 0 1-1-.5 1.5 1.5 0 0 1-.5-.7 2.2 2.2 0 0 1-.2-.8l.1-1.8v-1a1 1 0 0 0-.5-.6l-1-.2v-1.6Zm5 6.5v1.9h-1.8v-2h1.9Zm16.4 3 .2-1c.6.1 1 0 1.4-.1.3-.2.5-.6.6-1.2l.3-1.5c0-.6.3-1 .5-1.5.2-.3.5-.6.9-.8a2.8 2.8 0 0 1 1.2-.2l1.5.1-.3 1.6h-1a1 1 0 0 0-.6.4 3 3 0 0 0-.3 1l-.4 1.8a2.2 2.2 0 0 1-.3.8 1.5 1.5 0 0 1-.6.5 3 3 0 0 1-1.2.3 9 9 0 0 1-1.9-.2Zm4 8a7.7 7.7 0 0 1-1.5-.4 2.8 2.8 0 0 1-1-.7c-.3-.2-.5-.6-.6-1v-1.6l.3-1.4c.1-.6 0-1-.1-1.4-.2-.3-.6-.5-1.3-.6l.2-1c.8.1 1.4.3 1.8.5.5.2.8.4 1 .7.3.2.4.4.5.7v.8l-.4 1.9v1c0 .2.1.4.4.6.2.2.5.3 1 .4l-.4 1.5Zm-4.2-7.1.4-1.9 1.8.3-.4 2-1.8-.4Zm7.3.5.2-1c.7.2 1.1.1 1.4 0 .3-.2.6-.6.7-1.2l.3-1.4.6-1.5c.3-.4.6-.6 1-.8l1.1-.2 1.6.2-.4 1.6h-1a1 1 0 0 0-.6.4 3 3 0 0 0-.4.9l-.4 1.8a2.3 2.3 0 0 1-.4.8 1.5 1.5 0 0 1-.6.5 3 3 0 0 1-1.2.2 9 9 0 0 1-1.9-.3Zm3.6 8.2a7.7 7.7 0 0 1-1.5-.5 2.8 2.8 0 0 1-1-.7c-.2-.3-.4-.7-.4-1v-1.7l.4-1.4V98c-.3-.3-.7-.6-1.3-.7l.2-1 1.8.6c.5.2.8.4 1 .7l.4.8v.8l-.5 1.8v1c0 .2 0 .5.3.6.2.2.5.4 1 .5l-.4 1.5Zm-3.8-7.3.4-1.9 1.8.4-.4 1.9-1.8-.4Zm7.2.8.3-1c.6.2 1.1.2 1.4 0 .3-.1.6-.5.7-1l.4-1.5.7-1.4c.3-.4.6-.6 1-.7.3-.2.7-.2 1.2-.2a7.7 7.7 0 0 1 1.5.3l-.5 1.5h-1a1 1 0 0 0-.6.3 3 3 0 0 0-.4 1l-.5 1.7-.4.8a1.5 1.5 0 0 1-.7.5 3 3 0 0 1-1.2 0 9 9 0 0 1-1.9-.3Zm3.2 8.4a7.7 7.7 0 0 1-1.4-.6 2.8 2.8 0 0 1-1-.7l-.4-1.1c0-.5 0-1 .2-1.6l.4-1.4c.2-.6.2-1 0-1.3-.2-.4-.6-.6-1.2-.8l.3-1 1.7.7c.5.3.8.5 1 .8.2.2.3.5.3.7v.9l-.6 1.8a3 3 0 0 0-.1 1l.3.6 1 .5-.5 1.5Zm-3.4-7.5.5-1.8 1.7.5-.5 1.8-1.7-.5Zm12.2 2.8-.3.9c-.6-.2-1.1-.2-1.4 0-.4.1-.6.5-.8 1l-.5 1.4c-.2.6-.4 1.1-.7 1.4a2 2 0 0 1-1 .7 2.8 2.8 0 0 1-1.2.1 7.6 7.6 0 0 1-1.5-.3l.5-1.5c.5.1.8.2 1 .1a1 1 0 0 0 .7-.4c.2-.2.3-.5.4-.9l.6-1.7a2.2 2.2 0 0 1 .4-.7c.2-.3.4-.4.7-.5a3 3 0 0 1 1.2 0 5 5 0 0 1 1.9.4Zm-2.8-8.5a7.6 7.6 0 0 1 1.4.6l1 .8c.1.3.3.7.3 1.1 0 .4 0 1-.3 1.6l-.4 1.3c-.2.6-.2 1 0 1.4 0 .3.5.6 1 .8l-.2 1a9 9 0 0 1-1.8-.8 3 3 0 0 1-.9-.8c-.2-.3-.3-.5-.3-.8a2.3 2.3 0 0 1 .1-.8l.6-1.8.2-1a1 1 0 0 0-.3-.6c-.2-.2-.5-.4-1-.5l.6-1.5Zm3 7.6-.5 1.8-1.7-.6.6-1.8 1.7.6Zm6.6 3.5-.4.9c-.6-.3-1-.3-1.4-.1-.3.1-.6.5-.8 1l-.5 1.4-.8 1.4a2 2 0 0 1-1 .6 2.8 2.8 0 0 1-1.3 0 7.7 7.7 0 0 1-1.4-.4l.5-1.5c.5.2.8.3 1 .2a1 1 0 0 0 .7-.3c.2-.2.4-.5.5-.9l.7-1.7c0-.3.2-.5.4-.7l.7-.5h1.2l1.9.6Zm-2.4-8.7a7.7 7.7 0 0 1 1.3.7c.4.2.7.5 1 .9l.2 1.1c0 .4 0 1-.3 1.6l-.5 1.3c-.2.6-.3 1-.1 1.3.1.4.5.7 1 .9l-.3 1a9 9 0 0 1-1.7-.9 3 3 0 0 1-.9-.8 1.5 1.5 0 0 1-.2-.8 2.2 2.2 0 0 1 .1-.9l.7-1.7c.2-.4.2-.7.2-1a1 1 0 0 0-.2-.7l-1-.5.7-1.5Zm2.7 7.8-.7 1.8-1.7-.7.7-1.8 1.7.7Zm6.3 3.8-.4.9c-.6-.3-1-.4-1.4-.2-.3.1-.6.5-.9 1l-.5 1.3-.9 1.4a2 2 0 0 1-1 .6 2.8 2.8 0 0 1-1.3 0 7.7 7.7 0 0 1-1.4-.5l.6-1.5 1 .3a1 1 0 0 0 .7-.4c.2-.2.4-.4.5-.8l.8-1.7.4-.7.8-.4h1.2l1.8.7Zm-2-8.8 1.3.8c.4.2.7.5.9.9.2.3.3.7.2 1.1 0 .5-.1 1-.4 1.6l-.5 1.3c-.3.5-.3 1-.2 1.3.1.4.5.7 1 1l-.3.8-1.7-.9-.8-.8a1.5 1.5 0 0 1-.3-.9l.2-.8.8-1.7.2-1a1 1 0 0 0-.2-.6c-.1-.2-.4-.4-.8-.6l.6-1.5Zm2.4 8-.8 1.7-1.6-.8.7-1.7 1.7.7Zm6.1 4-.4.8c-.6-.2-1-.3-1.4-.2-.4.1-.7.5-1 1l-.6 1.3-.9 1.3a2 2 0 0 1-1 .5 2.8 2.8 0 0 1-1.3 0 7.6 7.6 0 0 1-1.4-.6l.7-1.4 1 .3a1 1 0 0 0 .7-.3l.5-.8.9-1.7.5-.7c.2-.1.4-.3.7-.3h1.2l1.8.8Zm-1.6-8.8a7.7 7.7 0 0 1 1.3.8c.4.2.6.5.8.9.2.3.3.7.2 1.1 0 .5-.2 1-.5 1.6l-.6 1.3c-.3.5-.3 1-.2 1.3 0 .3.4.7 1 1l-.4.8c-.7-.3-1.3-.6-1.7-1a3 3 0 0 1-.7-.8 1.5 1.5 0 0 1-.2-.9c0-.3 0-.5.2-.8l.8-1.7.3-.9a1 1 0 0 0-.2-.7c-.1-.2-.4-.4-.8-.6l.7-1.4Zm2 8-.8 1.7-1.6-.8.8-1.8 1.6.8Zm13.8 9.2.5-.8c.6.4 1 .5 1.4.4.3 0 .7-.3 1-.8l.8-1.2c.4-.5.7-1 1-1.2.5-.2.8-.4 1.2-.4l1.2.3 1.4.7-1 1.3c-.3-.2-.6-.4-.9-.4a1 1 0 0 0-.7.2 3 3 0 0 0-.7.7l-1 1.6a2.3 2.3 0 0 1-.6.6l-.8.2a3 3 0 0 1-1.2-.2 9 9 0 0 1-1.6-1Zm.4 9a7.7 7.7 0 0 1-1.2-1 2.8 2.8 0 0 1-.7-1c-.1-.4-.2-.8 0-1.2 0-.4.3-1 .6-1.4l.8-1.2c.4-.5.5-1 .4-1.3 0-.4-.3-.7-.9-1.1l.6-.8 1.5 1.2c.3.3.5.7.6 1 .2.3.2.5.1.8a2.2 2.2 0 0 1-.3.8l-1 1.5a3 3 0 0 0-.5.9v.7l.8.8-.8 1.3Zm-1-8.2 1.1-1.6 1.5 1-1 1.6-1.6-1Zm6.5 3.4.6-.8c.5.4 1 .5 1.3.5.4 0 .7-.4 1.1-.8l.9-1.2c.3-.5.7-.9 1.1-1.1.4-.2.8-.4 1.1-.3.4 0 .8 0 1.2.3a7.7 7.7 0 0 1 1.3.8l-1 1.2c-.3-.2-.6-.4-.9-.4a1 1 0 0 0-.7.1 3 3 0 0 0-.7.7l-1 1.5a2.3 2.3 0 0 1-.7.6 1.5 1.5 0 0 1-.8.2 3 3 0 0 1-1.2-.3l-1.6-1Zm0 9a7.6 7.6 0 0 1-1.2-1.1 2.8 2.8 0 0 1-.6-1 2.1 2.1 0 0 1 0-1.2c.1-.5.4-1 .8-1.5l.8-1.1c.4-.5.5-.9.5-1.3 0-.3-.3-.7-.8-1l.6-.9 1.4 1.3c.3.3.5.7.6 1v.9a2.2 2.2 0 0 1-.3.7l-1.2 1.5a3 3 0 0 0-.4.8 1 1 0 0 0 0 .8l.7.8-1 1.2Zm-.5-8.3 1.1-1.5 1.4 1-1.1 1.6-1.4-1Zm6.3 3.7.6-.8c.5.4 1 .6 1.3.6.3 0 .7-.3 1-.8l1-1.1c.4-.5.8-.9 1.2-1a2 2 0 0 1 1.2-.4c.3 0 .7.2 1.1.4.4.2.9.5 1.3.9l-1 1.2c-.4-.3-.7-.5-1-.5a1 1 0 0 0-.7.1 3 3 0 0 0-.7.7l-1.2 1.4a2.2 2.2 0 0 1-.6.5c-.2.2-.5.2-.8.2a3 3 0 0 1-1.2-.3 9 9 0 0 1-1.5-1.1Zm-.5 9a7.7 7.7 0 0 1-1-1.2 2.8 2.8 0 0 1-.6-1V133l.8-1.4 1-1.1c.3-.5.5-.9.5-1.2 0-.4-.3-.8-.8-1.2l.6-.8 1.4 1.3c.3.4.5.8.5 1.1v.9a2.2 2.2 0 0 1-.4.7l-1.2 1.4a3 3 0 0 0-.5.9v.7l.7.8-1 1.2Zm-.1-8.3 1.2-1.5 1.4 1.2-1.2 1.4-1.4-1.1Zm10.1 7.4-.7.7c-.5-.4-1-.6-1.3-.6-.4 0-.7.3-1.1.7l-1 1.1c-.4.5-.8.8-1.2 1a2 2 0 0 1-1.2.2 2.8 2.8 0 0 1-1.2-.4 7.7 7.7 0 0 1-1.2-.9l1-1.2 1 .6a1 1 0 0 0 .7-.1l.8-.6 1.2-1.4.7-.5.8-.2c.3 0 .7.2 1.1.5.5.2 1 .6 1.5 1.1Zm.8-9c.4.5.8.8 1 1.2.3.4.5.7.6 1.1 0 .4 0 .8-.2 1.2a3 3 0 0 1-.8 1.3l-1 1.1c-.4.5-.6.9-.6 1.2 0 .4.3.8.8 1.2l-.7.8-1.3-1.4a3 3 0 0 1-.5-1.1 1.5 1.5 0 0 1 0-.9 2.3 2.3 0 0 1 .5-.7l1.2-1.4c.3-.2.4-.5.6-.8a1 1 0 0 0 0-.7c-.1-.3-.3-.5-.7-.8l1-1.2Zm-.2 8.3-1.3 1.4-1.4-1.2 1.3-1.4 1.4 1.2Zm4.5 5.8-.7.7c-.5-.5-.9-.7-1.2-.7-.4 0-.8.3-1.2.7l-1 1-1.3 1a2 2 0 0 1-1.2.1 2.8 2.8 0 0 1-1.1-.4 7.7 7.7 0 0 1-1.2-1l1.1-1.1.9.6a1 1 0 0 0 .7 0l.8-.7 1.3-1.3.7-.5c.2-.1.5-.1.8 0 .4 0 .7.1 1.1.4.5.2 1 .6 1.5 1.2Zm1.3-8.9 1 1.2c.2.4.4.8.4 1.1 0 .4 0 .8-.2 1.2a3 3 0 0 1-.9 1.3l-1 1c-.4.5-.6.8-.6 1.2 0 .4.2.8.6 1.2l-.7.7c-.5-.5-1-1-1.2-1.4a3 3 0 0 1-.5-1 1.5 1.5 0 0 1 .1-1l.5-.6 1.3-1.4.6-.7a1 1 0 0 0 0-.8c0-.2-.2-.5-.6-.8l1.2-1.2Zm-.7 8.2-1.3 1.4-1.3-1.3 1.4-1.3 1.2 1.2Zm4.3 6.1-.7.6c-.4-.5-.8-.7-1.2-.7-.4 0-.8.2-1.2.6l-1 1c-.6.4-1 .7-1.4.8a2 2 0 0 1-1.2.2 2.8 2.8 0 0 1-1.1-.6 7.7 7.7 0 0 1-1.1-1l1.1-1 .9.6a1 1 0 0 0 .7 0l.8-.6 1.4-1.3a2.2 2.2 0 0 1 .7-.4c.2-.1.5-.1.8 0 .4 0 .7.2 1.1.4l1.4 1.3Zm1.7-8.9 1 1.2.3 1.2c0 .4 0 .8-.2 1.2-.2.3-.5.8-1 1.2l-1 1c-.5.4-.7.8-.7 1.1 0 .4.2.8.6 1.3l-.7.7-1.2-1.5a3 3 0 0 1-.4-1.1l.1-.9.5-.7 1.4-1.2c.3-.3.5-.5.6-.8a1 1 0 0 0 0-.7c0-.3-.2-.6-.5-1l1.2-1Zm-1 8.2-1.4 1.3-1.2-1.3 1.4-1.3 1.2 1.3Zm4 6.2-.8.6c-.4-.5-.8-.8-1.1-.8-.4 0-.8.2-1.3.6l-1 .9c-.6.4-1 .7-1.4.8a2 2 0 0 1-1.2 0 2.8 2.8 0 0 1-1.1-.5 7.7 7.7 0 0 1-1.1-1l1.2-1 .8.6a1 1 0 0 0 .8 0c.2 0 .5-.3.8-.5l1.4-1.2.7-.4h.9c.3 0 .7.2 1 .5l1.4 1.4Zm2-8.7 1 1.2.3 1.2c0 .4 0 .7-.3 1.1-.2.4-.5.8-1 1.2l-1.1 1c-.5.3-.7.7-.8 1 0 .4.2.9.6 1.4l-.8.6a9 9 0 0 1-1-1.5 3 3 0 0 1-.4-1.2 1.5 1.5 0 0 1 .1-.8l.6-.7 1.4-1.2.6-.7a1 1 0 0 0 .2-.7l-.6-1 1.3-1Zm-1.3 8-1.5 1.3-1.1-1.4 1.4-1.2 1.2 1.4Zm10.8 17.2.8-.5 1 1c.4 0 .9-.1 1.4-.4l1.2-.8 1.5-.6c.4 0 .8 0 1.2.2l1 .7.9 1.2-1.4.8-.7-.7a1 1 0 0 0-.7-.2 3 3 0 0 0-1 .4l-1.5 1-.8.3c-.3 0-.6 0-.9-.2a3 3 0 0 1-1-.7 9 9 0 0 1-1-1.5Zm-3.4 8.2a7.7 7.7 0 0 1-.7-1.3 2.8 2.8 0 0 1-.2-1.3c0-.3.2-.7.5-1a4 4 0 0 1 1.2-1l1.2-.8c.6-.3.9-.6 1-1 0-.4 0-.8-.4-1.4l.9-.5.8 1.7.2 1.2c0 .3-.2.6-.3.8a2.2 2.2 0 0 1-.6.6l-1.6 1a3 3 0 0 0-.8.5 1 1 0 0 0-.2.8c0 .2 0 .5.3 1l-1.3.7Zm2.6-7.8 1.6-1 1 1.6-1.7 1-.9-1.6Zm4.4 5.8 1-.4c.2.5.5.9.9 1 .3 0 .8 0 1.3-.3l1.3-.7a3 3 0 0 1 1.5-.5l1.2.1 1 .8a7.7 7.7 0 0 1 .8 1.3l-1.4.7-.7-.8a1 1 0 0 0-.7-.1 3 3 0 0 0-1 .3l-1.6.9-.8.2-.8-.1a3 3 0 0 1-1-.8 9 9 0 0 1-1-1.6Zm-3.8 8.1a7.6 7.6 0 0 1-.6-1.4 2.8 2.8 0 0 1 0-1.2c0-.4.1-.7.4-1 .3-.4.7-.7 1.3-1l1.3-.7c.5-.3.8-.6 1-1 0-.3 0-.8-.4-1.3l.9-.5a6.8 6.8 0 0 1 .9 2.9 1.5 1.5 0 0 1-.3.8 2.2 2.2 0 0 1-.7.5l-1.6 1a3 3 0 0 0-.8.5 1 1 0 0 0-.3.7l.3 1-1.4.7Zm3-7.6 1.7-1 .9 1.6-1.7 1-.9-1.6Zm4.2 6 .9-.5c.3.6.6 1 1 1 .3.2.7.1 1.2-.1l1.4-.7c.5-.2 1-.4 1.5-.4.4 0 .8 0 1.1.2l1 .8.7 1.3-1.4.7-.6-.8a1 1 0 0 0-.7-.2 3 3 0 0 0-1 .3l-1.6.8-.8.2a1.5 1.5 0 0 1-.9-.2 3 3 0 0 1-.9-.8 9 9 0 0 1-1-1.6Zm-4.2 7.9a7.7 7.7 0 0 1-.5-1.5 2.8 2.8 0 0 1 0-1.2c0-.4.2-.7.5-1 .3-.4.7-.7 1.3-1l1.3-.6c.5-.2.9-.5 1-.9.1-.3 0-.8-.2-1.3l.9-.5.6 1.8c.1.5.2.9.1 1.2 0 .3-.2.6-.4.8a2.2 2.2 0 0 1-.6.5l-1.7.8a3 3 0 0 0-.8.5 1 1 0 0 0-.3.7c0 .3 0 .6.2 1l-1.4.7Zm3.4-7.5 1.7-.9.8 1.7-1.8.8-.7-1.6Zm6 10.9-1 .4c-.2-.6-.5-1-.9-1-.3-.2-.7-.2-1.3 0l-1.3.6c-.6.3-1.1.4-1.6.4a2 2 0 0 1-1.1-.3 2.8 2.8 0 0 1-.9-.8 7.7 7.7 0 0 1-.7-1.4l1.4-.6.6.9a1 1 0 0 0 .7.2 3 3 0 0 0 1-.2l1.7-.8.8-.1c.3 0 .5 0 .8.2l.9.8.9 1.7Zm4.5-7.7.5 1.4v1.3a2 2 0 0 1-.6 1c-.4.3-.8.6-1.4.8l-1.3.6c-.6.2-1 .5-1 .9-.2.3-.2.8.1 1.4l-1 .3-.5-1.7V189c0-.3.2-.5.4-.7l.7-.5 1.7-.7c.4-.1.6-.3.8-.5a1 1 0 0 0 .4-.7l-.3-1 1.5-.6Zm-3.7 7.4-1.8.7-.7-1.7 1.8-.7.7 1.7Zm1.7 7.1-1 .4c-.2-.6-.5-1-.8-1.2-.3-.1-.8 0-1.3.1l-1.4.5c-.6.2-1.1.4-1.5.3a2 2 0 0 1-1.2-.3 2.8 2.8 0 0 1-.8-.9 7.7 7.7 0 0 1-.7-1.4l1.5-.5.5.9c.2.2.5.2.7.2.3 0 .6 0 1-.2l1.7-.6.9-.2.8.3.8.9.8 1.7Zm4.9-7.5.4 1.5v1.2a2 2 0 0 1-.7 1c-.4.3-.8.6-1.4.8l-1.4.5c-.5.2-.9.5-1 .8-.2.3-.2.8 0 1.4l-.9.3a9 9 0 0 1-.5-1.8v-1.2a1.5 1.5 0 0 1 .5-.7l.7-.4 1.7-.7c.4-.1.7-.3.9-.5a1 1 0 0 0 .4-.6c0-.3 0-.6-.2-1l1.5-.6Zm-4 7.2-1.8.7-.7-1.7 1.8-.7.6 1.7Zm1.3 7.2-1 .3c-.1-.6-.4-1-.7-1.1-.4-.2-.8-.2-1.4 0l-1.4.4-1.5.3a2 2 0 0 1-1.1-.4 2.8 2.8 0 0 1-.8-1 7.7 7.7 0 0 1-.6-1.4l1.5-.4c.1.4.3.7.5.9a1 1 0 0 0 .6.3c.3 0 .6 0 1-.2l1.8-.6a2.2 2.2 0 0 1 .8 0c.3 0 .5 0 .8.2.3.2.5.5.8 1l.7 1.7Zm5.2-7.3.3 1.5v1.3c0 .4-.4.6-.7 1l-1.5.6-1.4.5c-.5.2-.9.4-1 .7-.2.4-.2.8 0 1.4l-1 .3c-.2-.7-.4-1.3-.4-1.8v-1.2l.6-.7.7-.4 1.8-.6.9-.4a1 1 0 0 0 .3-.6v-1l1.4-.6Zm-4.3 7-1.8.6-.6-1.7 1.8-.6.6 1.7Zm1 7.3-1 .3c-.1-.6-.4-1-.7-1.2-.3-.2-.8-.2-1.3 0l-1.4.3c-.7.2-1.2.2-1.6.2a2 2 0 0 1-1.1-.4l-.8-1a7.7 7.7 0 0 1-.5-1.4l1.5-.5c.1.5.3.8.5 1a1 1 0 0 0 .6.3l1-.1 1.8-.5c.3 0 .6-.1.8 0 .3 0 .6 0 .8.3.3.2.5.5.7 1 .3.4.5 1 .7 1.7Zm5.5-7 .3 1.5a2.8 2.8 0 0 1-.2 1.2 2 2 0 0 1-.7 1l-1.5.6-1.4.4c-.5.1-1 .4-1.1.7-.2.3-.2.8 0 1.4l-1 .2-.3-1.8.1-1.2c.1-.3.3-.6.5-.7l.8-.4 1.8-.5c.4 0 .7-.2.9-.3a1 1 0 0 0 .4-.7v-1l1.4-.4Zm-4.6 6.8-1.9.5-.4-1.8 1.8-.5.5 1.8ZM407 229l1-.2c0 .7.2 1 .5 1.3.3.2.8.3 1.4.2l1.4-.2h1.6c.4.2.8.4 1 .7.3.2.5.6.6 1l.4 1.5-1.6.2c0-.4-.2-.8-.3-1a1 1 0 0 0-.6-.4 3 3 0 0 0-1 0l-1.9.2a2.3 2.3 0 0 1-.8 0 1.5 1.5 0 0 1-.7-.5 3 3 0 0 1-.6-1 9 9 0 0 1-.4-1.9Zm-6.5 6.1a7.6 7.6 0 0 1 0-1.5l.3-1.2c.2-.3.5-.6.9-.8.4-.2.9-.4 1.5-.4l1.4-.2c.6 0 1-.3 1.3-.6.2-.2.3-.7.2-1.3l1-.2v2c0 .4-.1.8-.3 1-.1.4-.3.6-.5.7a2.2 2.2 0 0 1-.8.3l-1.9.2a3 3 0 0 0-1 .2 1 1 0 0 0-.4.6v1l-1.7.2Zm5.6-6 1.9-.3.2 1.8-1.9.2-.2-1.7Zm1.7 7h1c0 .6.2 1 .5 1.3.3.2.7.3 1.3.2h1.5c.6-.1 1.1 0 1.6 0l1 .7.5 1c.2.5.2 1 .3 1.6l-1.6.1c0-.4-.1-.8-.3-1a1 1 0 0 0-.6-.5 3 3 0 0 0-1 0l-1.8.1a2.2 2.2 0 0 1-.8 0 1.5 1.5 0 0 1-.7-.5l-.6-1.1a9 9 0 0 1-.3-1.9Zm-6.7 6a7.6 7.6 0 0 1 0-1.6c0-.4.2-.8.4-1.2.2-.3.5-.6.9-.7.4-.2.9-.4 1.5-.4l1.5-.1c.6 0 1-.2 1.2-.5.3-.3.4-.7.3-1.4h1v1.8c0 .5-.2.9-.4 1.2a1.5 1.5 0 0 1-.6.6 2.2 2.2 0 0 1-.8.2l-1.8.1a3 3 0 0 0-1 .2 1 1 0 0 0-.5.6c-.1.2-.2.6-.1 1l-1.6.1Zm5.8-5.9 2-.1v1.8l-1.8.1-.2-1.8Zm1.4 7.2h1c0 .6.2 1 .4 1.3.3.2.8.3 1.3.3h1.5l1.6.1 1 .7.5 1.1.2 1.6h-1.6l-.2-1a1 1 0 0 0-.6-.5 3 3 0 0 0-1 0h-1.9l-.8-.1a1.5 1.5 0 0 1-.7-.6l-.5-1a9 9 0 0 1-.2-2Zm-7 5.6a7.8 7.8 0 0 1 .1-1.6c0-.4.2-.8.4-1.1l1-.8 1.5-.3h1.5c.6 0 1-.2 1.2-.4.3-.3.4-.8.4-1.4h1l-.1 1.8c-.1.5-.2 1-.4 1.2l-.7.5a2.2 2.2 0 0 1-.8.2h-1.8a3 3 0 0 0-1 .2 1 1 0 0 0-.5.6c-.2.2-.2.5-.2 1h-1.6Zm6.1-5.6h2v1.7l-2 .1v-1.8Zm1.1 12.4h-1c0-.6-.1-1-.4-1.3-.2-.3-.7-.4-1.3-.4h-1.4c-.6 0-1.2-.1-1.6-.3a2 2 0 0 1-1-.7 2.8 2.8 0 0 1-.4-1.2 7.7 7.7 0 0 1-.1-1.5h1.6c0 .5 0 .8.2 1 0 .3.3.5.5.6l1 .1h1.8c.3 0 .6 0 .9.2l.6.5.5 1.2.1 1.8Zm7.2-5.2a7.7 7.7 0 0 1-.1 1.5 2.8 2.8 0 0 1-.5 1.1 2 2 0 0 1-1 .7c-.4.2-.9.3-1.5.3H411c-.6 0-1 0-1.3.3-.2.3-.4.7-.4 1.4h-1c0-.8 0-1.5.2-2l.5-1 .6-.6.9-.1h1.8l1-.1a1 1 0 0 0 .6-.5l.2-1h1.5Zm-6.3 5.3h-1.9V254h2v1.9ZM408 263h-.9c0-.6 0-1-.3-1.3-.3-.3-.7-.5-1.3-.5h-1.4l-1.6-.4a2 2 0 0 1-.9-.8 2.8 2.8 0 0 1-.4-1.1 7.7 7.7 0 0 1 0-1.6l1.5.1.1 1a1 1 0 0 0 .6.6l1 .2h1.8l.8.3c.3 0 .5.3.6.6.2.2.4.6.4 1v2Zm7.6-4.8a7.7 7.7 0 0 1-.3 1.5c0 .4-.3.8-.5 1a2 2 0 0 1-1 .7c-.4.2-1 .2-1.6.2l-1.4-.1c-.6 0-1 0-1.3.3-.3.3-.5.7-.5 1.3h-1c0-.8.1-1.4.3-1.9.1-.5.3-.8.5-1 .2-.3.4-.5.7-.6.2 0 .5-.1.8 0h2.9a1 1 0 0 0 .5-.5c.2-.2.3-.6.3-1h1.6Zm-6.6 5-1.9-.2.1-1.8 1.9.1-.1 1.8Zm-1.7 7.1-1-.1a2 2 0 0 0-.2-1.4c-.2-.3-.6-.4-1.2-.5l-1.5-.1c-.6-.1-1.1-.2-1.5-.5a2 2 0 0 1-.9-.8 2.8 2.8 0 0 1-.3-1.1 7.6 7.6 0 0 1 0-1.6l1.5.2.1 1c.1.3.3.5.5.6l1 .2 1.8.2.8.2c.3.2.5.4.6.7.2.2.3.6.4 1.1v1.9Zm7.7-4.6a7.7 7.7 0 0 1-.3 1.5 2.8 2.8 0 0 1-.5 1.1 2 2 0 0 1-1 .6c-.5.1-1 .2-1.7 0h-1.4c-.6-.1-1 0-1.3.2-.3.2-.5.7-.5 1.3l-1-.1c0-.8.2-1.4.3-1.9l.6-1c.2-.3.4-.4.7-.5h.8l1.9.1h1a1 1 0 0 0 .6-.4l.3-1 1.5.1Zm-6.7 4.7-2-.2.2-1.8 2 .2-.2 1.8Zm-2 7.1-1-.2c0-.6 0-1-.2-1.4-.2-.3-.6-.5-1.2-.5l-1.4-.3c-.7 0-1.2-.2-1.6-.4a2 2 0 0 1-.8-.9 2.8 2.8 0 0 1-.3-1.2 7.7 7.7 0 0 1 0-1.5l1.6.2v1a1 1 0 0 0 .6.7l1 .2 1.8.3c.2 0 .5.1.7.3.3.1.5.3.6.6.2.3.3.7.3 1.2l-.1 1.9Zm7.9-4.2a7.6 7.6 0 0 1-.4 1.4c-.1.5-.4.8-.6 1a2 2 0 0 1-1 .6c-.5.1-1 .2-1.7 0l-1.4-.2c-.6 0-1 0-1.3.2-.3.2-.5.7-.6 1.3l-1-.1.4-1.9.6-1 .8-.5h.8l1.9.3h1a1 1 0 0 0 .6-.4l.3-1 1.6.3Zm-7 4.3-2-.3.4-1.8 1.8.3-.2 1.8Zm-4.7 15.9 1 .3c-.2.6-.2 1.1 0 1.4.1.3.5.6 1 .8l1.5.4c.6.1 1 .4 1.4.6.4.3.6.6.7 1 .2.4.2.8.2 1.2a7.8 7.8 0 0 1-.3 1.5l-1.5-.4v-1a1 1 0 0 0-.3-.7 3 3 0 0 0-1-.4l-1.7-.5a2.3 2.3 0 0 1-.8-.4 1.5 1.5 0 0 1-.4-.7 3 3 0 0 1-.2-1.2c0-.5.2-1.1.4-1.9Zm-8.4 3.1.6-1.4a2.8 2.8 0 0 1 .8-1 2.1 2.1 0 0 1 1-.4c.5 0 1 0 1.7.3l1.3.4h1.4c.3-.2.6-.6.7-1.2l1 .3-.7 1.7a3 3 0 0 1-.7 1 1.5 1.5 0 0 1-.8.3 2.2 2.2 0 0 1-.9-.1l-1.7-.5a3 3 0 0 0-1-.2 1 1 0 0 0-.7.3l-.5 1-1.5-.5Zm7.5-3.3 1.9.5-.5 1.7-1.9-.5.5-1.7Zm-1.2 7.2 1 .3c-.3.6-.3 1-.1 1.4.1.3.5.6 1 .8l1.4.4 1.4.8c.4.3.6.6.7 1v1.2l-.3 1.5-1.5-.5.2-1a1 1 0 0 0-.4-.7 3 3 0 0 0-.9-.5l-1.7-.6a2.3 2.3 0 0 1-.8-.4 1.5 1.5 0 0 1-.4-.7 3 3 0 0 1 0-1.2c0-.5.1-1.1.4-1.8Zm-8.5 2.7a7.6 7.6 0 0 1 .6-1.4 2.8 2.8 0 0 1 .8-1 2 2 0 0 1 1.1-.3c.5 0 1 0 1.6.3l1.4.4c.5.2 1 .3 1.3.1.3-.1.6-.5.8-1.1l1 .3c-.3.7-.5 1.3-.8 1.7a3 3 0 0 1-.8 1 1.5 1.5 0 0 1-.8.2 2.2 2.2 0 0 1-.8-.1l-1.8-.6a3 3 0 0 0-1-.2 1 1 0 0 0-.6.3l-.6.9-1.4-.5Zm7.6-3 1.8.6-.6 1.7-1.8-.6.6-1.7Zm-1.5 7.1.9.3c-.3.6-.3 1.1-.2 1.4.2.4.5.7 1 .9l1.4.5 1.4.8c.3.3.5.7.6 1v1.3a7.7 7.7 0 0 1-.4 1.4l-1.5-.6.3-1a1 1 0 0 0-.4-.7 3 3 0 0 0-.8-.4l-1.8-.7a2.2 2.2 0 0 1-.7-.5 1.5 1.5 0 0 1-.4-.7V309c0-.5.3-1.1.5-1.8Zm-8.7 2.3.7-1.4a2.8 2.8 0 0 1 .8-.9l1.2-.3c.4 0 1 .2 1.5.4l1.4.5c.5.3 1 .3 1.3.1.4 0 .7-.5.9-1l1 .3-1 1.7a3 3 0 0 1-.8.9 1.5 1.5 0 0 1-.8.2 2.2 2.2 0 0 1-.8-.1l-1.7-.7a3 3 0 0 0-1-.3 1 1 0 0 0-.7.3 2 2 0 0 0-.5.9l-1.5-.6Zm7.8-2.7 1.8.7-.7 1.7-1.8-.7.7-1.7Zm-4 11.9-1-.4c.4-.6.4-1 .3-1.4-.1-.4-.5-.6-1-.9l-1.3-.6c-.6-.3-1-.5-1.4-.9a2 2 0 0 1-.6-1 2.8 2.8 0 0 1 0-1.2 7.7 7.7 0 0 1 .6-1.5l1.4.7c-.2.4-.2.7-.2 1a1 1 0 0 0 .3.7l.8.5 1.7.8c.3 0 .5.2.7.4l.4.8v1.2l-.7 1.8Zm8.7-2a7.7 7.7 0 0 1-.7 1.4c-.3.4-.6.7-1 .8a2 2 0 0 1-1 .3c-.5 0-1-.2-1.6-.4l-1.3-.6c-.6-.3-1-.3-1.4-.2-.3.1-.6.5-.9 1l-.9-.3c.3-.8.7-1.3 1-1.7.2-.4.5-.7.8-.8.3-.2.6-.3.8-.2.3 0 .6 0 .9.2l1.7.7.9.3a1 1 0 0 0 .7-.2l.6-.9 1.4.7Zm-7.9 2.4-1.7-.8.7-1.7 1.8.8-.8 1.7Zm-4.1 6.1-.9-.5c.3-.6.4-1 .3-1.4-.1-.3-.4-.6-1-.9l-1.3-.7c-.5-.2-1-.6-1.3-.9a2 2 0 0 1-.5-1l.1-1.3.6-1.4 1.4.7-.3 1c0 .3 0 .5.3.7.1.2.4.4.8.6l1.6.8.7.5a1.5 1.5 0 0 1 .3.8v1.2l-.8 1.8Zm8.8-1.6a7.7 7.7 0 0 1-.8 1.3 2.8 2.8 0 0 1-.9.8 2 2 0 0 1-1.2.2c-.4 0-1-.2-1.5-.5l-1.3-.6c-.5-.3-1-.4-1.3-.3-.4.2-.7.5-1 1l-.9-.4 1-1.6 1-.8.8-.2c.3 0 .5.1.8.3l1.7.8.9.3a1 1 0 0 0 .7-.1l.6-.9 1.4.7Zm-8 2-1.7-.9.9-1.6 1.7.9-.9 1.6Zm-4.3 5.9-1-.5c.4-.6.5-1 .4-1.4-.1-.3-.4-.7-1-1l-1.2-.7c-.5-.3-1-.6-1.2-1a2 2 0 0 1-.5-1 2.8 2.8 0 0 1 .1-1.3l.7-1.4 1.3.8-.3 1a1 1 0 0 0 .3.7l.7.6 1.7 1c.2 0 .4.2.6.5.2.2.3.4.3.8 0 .3 0 .7-.2 1.1l-.7 1.8Zm8.8-1.1c-.2.5-.5.9-.8 1.2-.3.4-.7.6-1 .8a2 2 0 0 1-1.2.1c-.4 0-1-.2-1.5-.5l-1.2-.8c-.6-.3-1-.4-1.3-.3-.4.1-.7.5-1 1l-1-.5 1.1-1.5a3 3 0 0 1 1-.8c.3-.1.6-.2.8-.1.3 0 .6.1.8.3l1.6.9 1 .3.7-.1.7-.8 1.3.8Zm-8 1.5-1.7-1 .9-1.5 1.6 1-.9 1.5Zm-4.7 5.7-.8-.5c.3-.6.4-1 .3-1.4 0-.3-.3-.7-.8-1l-1.3-.8c-.5-.3-1-.6-1.2-1a2 2 0 0 1-.4-1.1 2.8 2.8 0 0 1 .2-1.2l.7-1.4 1.3.9-.4 1a1 1 0 0 0 .3.6c.1.3.4.5.7.7l1.6 1 .6.5c.2.2.2.5.3.8 0 .4 0 .8-.2 1.2l-1 1.7Zm9-.7a7.6 7.6 0 0 1-1 1.2 2.8 2.8 0 0 1-1 .7 2 2 0 0 1-1.2.1c-.4 0-1-.3-1.5-.6l-1.2-.8c-.5-.3-1-.4-1.3-.3-.3 0-.7.3-1 .9l-.9-.5 1.2-1.6a3 3 0 0 1 1-.7c.2 0 .5-.1.8 0 .3 0 .5.1.8.3l1.5 1 1 .4a1 1 0 0 0 .7-.2l.7-.7 1.3.8Zm-8.2 1.2-1.6-1 1-1.6 1.5 1-1 1.6ZM372.5 351l.8.6a2 2 0 0 0-.6 1.2c0 .4.3.8.7 1.2l1.1.9c.5.4.9.8 1.1 1.2l.3 1.1a2.8 2.8 0 0 1-.4 1.2l-.9 1.3-1.2-1c.3-.4.5-.7.5-1a1 1 0 0 0 0-.7 3 3 0 0 0-.7-.7l-1.5-1.2a2.2 2.2 0 0 1-.5-.7 1.5 1.5 0 0 1-.2-.8c0-.3.2-.7.4-1.1.2-.5.6-1 1.1-1.6Zm-9-.6a7.6 7.6 0 0 1 1.2-1.1 2.8 2.8 0 0 1 1-.6l1.2.1c.5.1 1 .4 1.4.8l1.1 1c.5.3.9.5 1.2.5.4 0 .8-.3 1.2-.8l.8.7-1.4 1.3a3 3 0 0 1-1 .6 1.5 1.5 0 0 1-.9 0 2.2 2.2 0 0 1-.7-.5l-1.4-1.2a3 3 0 0 0-.9-.5 1 1 0 0 0-.7 0c-.3.1-.5.3-.8.7l-1.2-1Zm8.3 0 1.5 1.2-1.2 1.3-1.5-1.2 1.2-1.4Zm-4 6 .7.7a2 2 0 0 0-.6 1.2c0 .4.2.8.7 1.2l1 1c.5.4.8.8 1 1.2.2.4.3.8.2 1.2a2.8 2.8 0 0 1-.4 1.1c-.2.4-.5.8-1 1.2l-1-1 .5-1a1 1 0 0 0 0-.7 3 3 0 0 0-.7-.7l-1.4-1.3a2.2 2.2 0 0 1-.5-.6l-.1-.9c0-.3.2-.7.4-1.1l1.2-1.5Zm-9-1 1.2-1a2.8 2.8 0 0 1 1.1-.5l1.2.1c.4.2.9.5 1.3 1l1 1c.5.3 1 .5 1.3.5.4 0 .8-.2 1.2-.7l.7.7c-.5.5-1 1-1.4 1.2a3 3 0 0 1-1 .5 1.5 1.5 0 0 1-1 0 2.2 2.2 0 0 1-.6-.5l-1.4-1.2a3 3 0 0 0-.8-.6 1 1 0 0 0-.7 0c-.3 0-.6.3-.9.6l-1.1-1Zm8.3.4 1.4 1.3-1.2 1.3-1.4-1.3 1.2-1.3Zm-4.3 5.9.7.7c-.5.4-.7.8-.7 1.2 0 .4.2.8.6 1.2l1 1 1 1.3c.2.4.2.8.2 1.2 0 .4-.3.7-.5 1.1a7.7 7.7 0 0 1-1 1.2l-1.1-1.1.6-.9a1 1 0 0 0 0-.7 3 3 0 0 0-.6-.8l-1.3-1.4a2.3 2.3 0 0 1-.5-.6 1.5 1.5 0 0 1-.1-.9c0-.3.2-.7.5-1.1a9 9 0 0 1 1.2-1.4Zm-8.8-1.4a7.7 7.7 0 0 1 1.1-1 2.8 2.8 0 0 1 1.2-.4c.4 0 .7 0 1.1.2.5.1.9.5 1.3 1l1 1c.5.4.9.6 1.2.6.4 0 .8-.2 1.3-.7l.7.7c-.6.6-1 1-1.5 1.2a3 3 0 0 1-1.1.5 1.5 1.5 0 0 1-.9-.1 2.2 2.2 0 0 1-.6-.5l-1.3-1.3a3 3 0 0 0-.8-.6 1 1 0 0 0-.8 0c-.2 0-.5.2-.8.5l-1.1-1Zm8.2.7 1.3 1.4-1.3 1.2-1.3-1.3 1.3-1.3Zm-8.4 9.3-.7-.8c.5-.4.7-.8.7-1.2 0-.3-.2-.7-.6-1.2l-1-1-.8-1.4a2 2 0 0 1-.1-1.2c0-.3.2-.7.5-1a7.6 7.6 0 0 1 1-1.2l1.1 1.2c-.3.3-.5.5-.6.8a1 1 0 0 0 0 .7c0 .3.3.6.5.9l1.3 1.3.4.7v.9c0 .3-.2.7-.5 1-.2.5-.7 1-1.2 1.5Zm8.7 1.7-1.2 1-1.2.4a2 2 0 0 1-1.1-.3l-1.3-1-1-1c-.3-.5-.7-.7-1-.8a2 2 0 0 0-1.3.6l-.7-.7c.6-.5 1-.9 1.5-1.1a3 3 0 0 1 1.1-.5c.4 0 .6 0 .9.2l.6.5 1.3 1.4.7.6c.3.1.5.2.8.1.2 0 .5-.3.9-.6l1 1.2Zm-8.1-1-1.3-1.5 1.3-1.2 1.3 1.4-1.3 1.2Zm-6.2 3.9-.7-.8c.5-.4.8-.8.8-1.2a2 2 0 0 0-.5-1.2l-1-1.1-.7-1.4c-.2-.4-.2-.8-.1-1.2l.6-1a7.7 7.7 0 0 1 1-1.1l1 1.2c-.3.3-.5.5-.6.8a1 1 0 0 0 0 .7c0 .3.2.6.5.9l1.2 1.4.4.7v.9c-.1.3-.3.7-.6 1l-1.3 1.4Zm8.6 2.1-1.2.9a2.8 2.8 0 0 1-1.2.3 2 2 0 0 1-1.2-.2l-1.1-1.1-1-1.1c-.3-.5-.7-.7-1-.8-.4 0-.9.2-1.4.6l-.6-.8c.6-.5 1.1-.8 1.6-1a3 3 0 0 1 1.1-.4 1.5 1.5 0 0 1 .8.2c.3 0 .5.3.7.5l1.2 1.4.7.7a1 1 0 0 0 .7.1c.3 0 .6-.2 1-.5l1 1.2Zm-8-1.4-1.3-1.5 1.4-1.1 1.2 1.4-1.4 1.2Zm-6.4 3.6-.6-.8c.5-.4.8-.7.8-1.1a2 2 0 0 0-.5-1.3l-.8-1.1c-.4-.5-.7-1-.8-1.4a2 2 0 0 1 0-1.2c.1-.4.3-.7.6-1a4 4 0 0 1 1.2-1l1 1.2c-.4.2-.7.5-.8.7a1 1 0 0 0 0 .8l.4.8 1.2 1.5.3.8v.8c-.1.3-.3.7-.6 1-.4.4-.8.9-1.4 1.3Zm8.5 2.6-1.3.8-1.2.3a2 2 0 0 1-1.1-.4c-.4-.2-.8-.6-1.1-1l-1-1.2c-.3-.5-.6-.8-1-.8-.3-.1-.8 0-1.3.5l-.6-.8c.6-.5 1.2-.8 1.6-1a3 3 0 0 1 1.2-.4c.3 0 .6.1.8.3l.6.5 1.1 1.5.7.7a1 1 0 0 0 .7.2c.3 0 .6-.2 1-.5l1 1.3Zm-8-1.8-1.1-1.6 1.4-1 1.1 1.5-1.4 1Zm-6.5 3.3-.6-.8c.5-.4.8-.8.9-1.1 0-.4 0-.8-.4-1.3l-.8-1.2c-.4-.5-.6-1-.7-1.4a2 2 0 0 1 0-1.2 2.8 2.8 0 0 1 .7-1 7.7 7.7 0 0 1 1.2-1l.9 1.3c-.4.2-.6.5-.8.7a1 1 0 0 0 0 .8l.4.9 1 1.5.4.8-.1.8a3 3 0 0 1-.7 1c-.3.4-.8.8-1.4 1.2Zm8.4 3-1.3.7a2.8 2.8 0 0 1-1.2.2 2 2 0 0 1-1.2-.4c-.3-.2-.7-.6-1-1.1l-.9-1.2c-.3-.5-.6-.8-1-.9-.4 0-.8 0-1.3.5l-.6-.9 1.7-.9a3 3 0 0 1 1.1-.3c.4 0 .6.1.9.3l.5.6 1 1.5.7.8a1 1 0 0 0 .8.2l1-.5.8 1.3Zm-8-2.2-1-1.6 1.5-1 1 1.5-1.4 1Zm-14.8 7.3.4 1c-.5.2-.9.5-1 .9-.1.3 0 .8.2 1.3l.7 1.3.5 1.5c0 .4 0 .8-.3 1.2-.1.3-.4.6-.8 1a7.7 7.7 0 0 1-1.3.7l-.7-1.4.9-.6a1 1 0 0 0 .2-.8 3 3 0 0 0-.4-.9l-.8-1.7a2.2 2.2 0 0 1-.2-.8 1.5 1.5 0 0 1 .2-.8c.1-.3.4-.6.8-.9a9 9 0 0 1 1.6-1Zm-8-4a7.8 7.8 0 0 1 1.5-.6h1.2c.4 0 .7.2 1 .5.4.3.7.7 1 1.3l.6 1.3c.3.5.6.8 1 1 .3 0 .7 0 1.3-.3l.4.9-1.7.7a3 3 0 0 1-1.2 0 1.5 1.5 0 0 1-.8-.3 2.2 2.2 0 0 1-.5-.6l-.8-1.7a3 3 0 0 0-.6-.8 1 1 0 0 0-.7-.3c-.2 0-.6 0-1 .3l-.7-1.4Zm7.6 3.2.8 1.7-1.6.8-.8-1.7 1.6-.8Zm-6.1 4 .4.9c-.6.2-1 .5-1.1.9-.1.3 0 .8.2 1.3l.5 1.3c.3.6.4 1.1.4 1.6 0 .4 0 .8-.2 1.1a2.8 2.8 0 0 1-.9 1l-1.3.7-.6-1.5.8-.6a1 1 0 0 0 .2-.7 3 3 0 0 0-.2-1l-.8-1.6a2.2 2.2 0 0 1-.2-.9l.3-.8c.1-.3.4-.5.8-.8a9 9 0 0 1 1.7-1Zm-7.8-4.5a7.7 7.7 0 0 1 1.4-.5h1.3c.4.1.7.3 1 .6l.9 1.4.5 1.3c.3.5.6.9 1 1 .2.1.7 0 1.3-.2l.4 1-1.8.5a3 3 0 0 1-1.2 0 1.5 1.5 0 0 1-.8-.3 2.2 2.2 0 0 1-.4-.7l-.8-1.7a3 3 0 0 0-.5-.8 1 1 0 0 0-.7-.4c-.2 0-.6 0-1 .3l-.6-1.5Zm7.4 3.6.8 1.8-1.7.7-.8-1.8 1.7-.7Zm-6.3 3.7.4 1c-.6.1-1 .4-1.2.8-.1.3 0 .7.1 1.3l.6 1.4.3 1.5c0 .5-.1.8-.3 1.2a2.8 2.8 0 0 1-1 .8c-.3.3-.8.5-1.3.7l-.6-1.5 1-.5a1 1 0 0 0 .2-.7c0-.3 0-.6-.2-1l-.7-1.7a2.3 2.3 0 0 1-.1-.9c0-.2 0-.5.2-.8l.9-.8a9 9 0 0 1 1.7-.8Zm-7.6-4.8a7.7 7.7 0 0 1 1.5-.4 2.8 2.8 0 0 1 1.2 0 2.1 2.1 0 0 1 1 .7c.3.3.6.7.8 1.3l.5 1.4c.3.5.5.9.9 1 .3.2.8.2 1.4 0l.3.9-1.8.5a3 3 0 0 1-1.2 0 1.5 1.5 0 0 1-.7-.5 2.2 2.2 0 0 1-.5-.7l-.6-1.7a3 3 0 0 0-.5-.9 1 1 0 0 0-.7-.3c-.2 0-.6 0-1 .2l-.6-1.5Zm7.3 4 .7 1.7-1.7.7-.7-1.8 1.7-.7Zm-11.5 5-.3-1c.7-.1 1-.4 1.2-.7.2-.3.1-.8 0-1.4l-.5-1.3-.3-1.6c0-.4.2-.8.4-1.1a2 2 0 0 1 1-.8 7.6 7.6 0 0 1 1.3-.6l.5 1.5a2 2 0 0 0-.9.5 1 1 0 0 0-.3.7l.2 1 .6 1.7.1.8a1.5 1.5 0 0 1-.3.8 3 3 0 0 1-1 .8l-1.6.7Zm7.4 5.2a7.7 7.7 0 0 1-1.5.3h-1.2a2 2 0 0 1-1-.8c-.3-.3-.5-.8-.7-1.4l-.5-1.4c-.2-.5-.4-.9-.7-1-.4-.2-.8-.2-1.5 0l-.3-1 1.9-.4h1.2l.7.6.4.7.6 1.8.4.8c.2.2.4.4.7.4l1-.1.5 1.5Zm-7-4.3-.7-1.8 1.8-.6.6 1.8-1.8.6Zm-7.4 1.1-.2-1c.6-.1 1-.4 1.2-.7.2-.3.2-.8 0-1.3l-.4-1.4-.2-1.6c0-.4.2-.8.5-1.1a2 2 0 0 1 1-.8 7.7 7.7 0 0 1 1.3-.5l.5 1.5-1 .4a1 1 0 0 0-.3.7c0 .3 0 .6.2 1l.5 1.8v.8a1.5 1.5 0 0 1-.3.8 3 3 0 0 1-1 .7c-.4.3-1 .5-1.7.7Zm7.2 5.5a7.6 7.6 0 0 1-1.5.3 2.8 2.8 0 0 1-1.3-.2 2 2 0 0 1-.9-.7c-.3-.4-.5-.9-.7-1.5l-.3-1.4c-.2-.5-.4-1-.8-1.1-.3-.2-.8-.2-1.4 0l-.2-1 1.8-.3 1.2.1c.3.1.6.3.7.5l.4.7.5 1.8c0 .4.2.7.4 1a1 1 0 0 0 .6.3h1l.5 1.5Zm-6.9-4.6-.5-1.8 1.7-.5.6 1.8-1.8.5Zm-7.3.8-.2-1c.6-.2 1-.4 1.2-.7.2-.3.2-.8.1-1.3l-.3-1.4a3 3 0 0 1-.1-1.6c0-.5.2-.8.4-1.1.3-.3.6-.6 1-.7l1.5-.5.3 1.5-1 .4a1 1 0 0 0-.3.7l.1 1 .4 1.8c.1.3.1.5 0 .8 0 .3 0 .5-.3.8a3 3 0 0 1-1 .7l-1.8.6Zm6.9 5.7-1.6.3-1.2-.2a2 2 0 0 1-.9-.8l-.6-1.5-.3-1.4c-.1-.6-.4-1-.7-1.2-.3-.2-.7-.2-1.4 0l-.2-1a9 9 0 0 1 1.9-.3c.5 0 .9 0 1.2.2.3.1.5.3.6.5l.4.8.4 1.8c0 .4.2.7.3 1a1 1 0 0 0 .7.4l1-.1.4 1.5Zm-6.7-4.8-.4-2 1.7-.3.5 1.8-1.8.5Zm-7.3.4-.2-1c.6-.1 1-.3 1.3-.6.2-.3.2-.8.1-1.4l-.3-1.4v-1.6c0-.4.3-.8.5-1l1-.7a7.7 7.7 0 0 1 1.5-.4l.3 1.5c-.4.1-.8.2-1 .4a1 1 0 0 0-.3.6v1l.3 1.9v.8c0 .3-.1.5-.4.7a3 3 0 0 1-1 .7c-.4.2-1 .4-1.8.5Zm6.6 6a7.6 7.6 0 0 1-1.6.2 2.8 2.8 0 0 1-1.2-.2 2 2 0 0 1-.8-.8c-.3-.4-.4-1-.6-1.5l-.2-1.5c-.1-.6-.3-1-.6-1.2-.3-.2-.8-.2-1.4-.1l-.2-1a9 9 0 0 1 1.9-.2c.5 0 .8.1 1.1.3.3.1.6.3.7.5l.3.8.3 1.8.3 1a1 1 0 0 0 .6.4h1l.4 1.6Zm-6.4-5.1-.4-1.9 1.8-.3.3 1.9-1.7.3ZM245.3 470l3.9-13.8h1.8l-4 13.8h-1.8Zm-7.7-.2L242 456l1.8.1-4.4 13.8-1.8-.1Zm-7.6-.6 4.8-13.6 1.8.2-4.9 13.5-1.8-.1Zm-7.7-.8 5.3-13.4 1.8.2-5.3 13.4-1.8-.2Zm-7.7-1.1 5.8-13.3 1.8.3-5.8 13.2-1.8-.2Zm-7.6-1.4 6.3-13 1.8.3-6.3 13-1.7-.3Zm-7.5-1.6 6.7-12.8 1.8.4-6.7 12.7-1.8-.3Zm-7.5-1.9 7.2-12.6 1.7.5-7 12.5-1.8-.4Zm-7.3-2.2 7.5-12.3 1.8.5-7.6 12.3-1.7-.5Zm-7.3-2.4 8-12 1.6.5-8 12-1.6-.5Zm-7.3-2.7 8.4-11.7 1.7.6-8.4 11.7-1.7-.6Zm-7.1-2.9 8.8-11.4 1.7.7-8.8 11.4-1.7-.7Zm-7-3.2 9.2-11 1.6.7-9.2 11-1.6-.7Zm-7-3.4 9.7-10.8 1.6.8-9.6 10.8-1.6-.8Zm-6.7-3.6 10-10.5 1.5.9-10 10.4-1.5-.8Zm-6.7-4 10.4-10 1.5.9-10.3 10-1.6-.8Zm-28.1-20.2 11.8-8.3 1.4 1.1L109 419l-1.4-1.1Zm-5.7-5.1 12-8 1.4 1.3-12 8-1.4-1.3Zm-5.6-5.3 12.3-7.5 1.3 1.3-12.3 7.5-1.3-1.3Zm-5.5-5.4 12.6-7.1 1.3 1.3-12.6 7-1.3-1.3Zm-5.2-5.7 12.8-6.6 1.3 1.3-12.9 6.6-1.2-1.3Zm-5-5.9 13-6.1 1.2 1.3-13 6.2-1.2-1.4Zm-4.8-6 13.2-5.7 1.2 1.4-13.3 5.7-1.1-1.4Zm-4.6-6.2 13.4-5.2 1.1 1.4-13.4 5.3-1.1-1.5Zm-4.4-6.3 13.6-4.8 1 1.5-13.6 4.8-1-1.5Zm-4.1-6.5 13.7-4.3 1 1.5-13.8 4.3-1-1.5Zm-4-6.6 14-3.8.9 1.5-14 3.8-.9-1.5ZM55 352l14-3.3.9 1.6-14 3.3-1-1.6Zm-3.5-6.9 14.2-2.8.8 1.6-14.2 2.8-.8-1.6Zm-3.2-7 14.2-2.3.8 1.6-14.3 2.4-.7-1.7Zm-3-7.1 14.4-1.8.6 1.6-14.3 1.9-.7-1.7Zm-2.7-7.2 14.4-1.3.6 1.7-14.3 1.3-.7-1.7Zm-9-33.5 14.4 1 .4 1.8-14.4-1-.4-1.8Zm-1.3-7.6 14.4 1.5.3 1.8-14.4-1.5-.3-1.8Zm-1-7.6 14.3 2 .3 1.7-14.3-2-.3-1.7Zm-.7-7.7 14.2 2.5.2 1.8-14.2-2.5-.2-1.8Zm-.5-7.7 14.1 3 .1 1.8-14-3-.2-1.8ZM30 252l14 3.5v1.8l-14-3.5V252Zm0-7.7 13.9 4v1.8l-14-4v-1.8Zm.3-7.7 13.7 4.5v1.8l-13.8-4.5.1-1.8Zm.7-7.6 13.5 4.9-.2 1.8-13.5-5 .1-1.7Zm.8-7.7 13.4 5.4-.2 1.8-13.4-5.4.2-1.8Zm1.2-7.6 13.1 5.8-.3 1.8-13.2-5.8.3-1.8Zm1.3-7.6 13 6.3-.3 1.8-13-6.3.3-1.8Zm1.7-7.5 12.7 6.7-.4 1.8-12.7-6.8.4-1.7Zm2-7.5 12.4 7.2-.4 1.8-12.5-7.2.4-1.8Zm2.1-7.4 12.3 7.7-.6 1.7-12.2-7.6.5-1.8Zm2.5-7.3 12 8-.6 1.8-12-8 .6-1.8Zm15.9-35 10.4 10-.8 1.6-10.4-10 .8-1.6Zm4-6.6 10 10.4-1 1.5-10-10.3 1-1.6Zm4.1-6.5 9.7 10.7-1 1.5-9.7-10.7 1-1.5ZM71 122l9.3 11-1 1.5-9.4-11 1-1.5Zm4.6-6.2 8.9 11.3-1.1 1.5-9-11.4 1.2-1.4Zm4.8-6 8.5 11.6-1.2 1.4-8.5-11.6 1.2-1.4Zm5-5.8 8 11.9-1.1 1.3-8.1-12 1.2-1.3Zm5.2-5.8 7.6 12.3-1.2 1.3-7.6-12.2 1.2-1.4Zm5.4-5.5 7.2 12.5-1.2 1.3L94.7 94l1.3-1.3Zm5.6-5.2 6.8 12.7-1.3 1.2-6.8-12.7 1.3-1.2Zm5.8-5.1 6.3 13-1.3 1.1-6.4-13 1.4-1.1Zm5.9-4.9 6 13.1-1.5 1.2-5.9-13.2 1.4-1.1Zm6.2-4.7 5.4 13.4-1.5 1L118 74l1.5-1.1Zm6.2-4.5 5 13.6-1.5 1-5-13.5 1.5-1Zm6.5-4.3 4.4 13.8-1.5 1-4.4-13.7 1.5-1Zm6.5-4 4 14-1.5.9-4-13.9 1.5-1Zm34.8-16.4L175 58l-1.7.6-1.5-14.3 1.7-.7Zm7.3-2.6 1 14.5-1.7.5-1-14.4 1.7-.5Zm7.3-2.2.5 14.4-1.7.5-.5-14.4 1.7-.5Zm7.5-2.1v14.5l-1.8.4V37.2l1.8-.5ZM203 35l-.4 14.4-1.8.4.5-14.4 1.8-.4Zm7.6-1.6-1 14.4-1.8.4 1-14.4 1.8-.4Zm7.6-1.2-1.5 14.3-1.8.3 1.5-14.3 1.8-.3Zm7.7-1-2 14.3-1.8.2 2-14.3 1.8-.2Zm7.6-.7L231 44.7l-1.8.2 2.5-14.2 1.8-.2Zm7.7-.5-3 14.2h-1.8l3-14 1.8-.1Zm7.8-.1-3.6 14h-1.8l3.5-14h1.8Zm7.6.1-4 13.9h-1.8l4-14h1.8Zm7.7.4L260 44h-2l4.4-13.7h1.8Zm7.7.6-5 13.5-1.7-.1 5-13.6 1.7.2Zm7.7.9-5.5 13.4-1.7-.3 5.4-13.3 1.8.2Zm7.6 1.1-6 13.2-1.7-.2 5.9-13.2 1.8.3Zm37.2 9.9-8.1 12-1.7-.7 8-12 1.8.7Zm7.2 2.7-8.5 11.7-1.7-.7L330 45l1.7.6Zm7.1 3-9 11.3-1.6-.7 9-11.3 1.6.7Zm7 3.2-9.3 11-1.6-.7 9.3-11 1.6.7Zm6.9 3.5L343 66l-1.6-.8 9.7-10.7 1.6.8Zm6.7 3.7-10 10.4-1.6-1 10-10.3 1.6.9Zm6.6 4-10.4 10-1.5-1 10.4-10 1.5 1Zm6.5 4.1-10.7 9.6-1.6-1 10.8-9.6 1.5 1Zm6.3 4.4-11 9.3-1.5-1 11-9.3 1.5 1Zm6.2 4.6L373.6 85l-1.4-1.1 11.4-8.8 1.4 1Zm6 4.9-11.7 8.4-1.4-1.1 11.7-8.5L391 81Zm5.8 5-12 8-1.3-1.1 12-8 1.3 1.1Zm5.7 5.2L390.2 99l-1.3-1.3 12.3-7.6 1.3 1.2Zm5.5 5.5-12.6 7.2-1.2-1.3 12.5-7.2 1.2 1.3Zm5.2 5.6-12.8 6.7-1.2-1.3L412 101l1.2 1.3Zm5.1 5.8-13 6.3-1.2-1.4 13-6.3 1.2 1.4Zm22.1 31.5-13.9 3.9-.9-1.6 13.9-3.9 1 1.6Zm3.8 6.7-14 3.4-1-1.5 14.1-3.5.9 1.6Zm3.5 6.9-14.1 2.9-.9-1.6 14.2-3 .8 1.7Zm3.3 6.9-14.3 2.5-.7-1.7 14.2-2.4.7 1.6Zm3 7.1-14.3 2-.7-1.7 14.3-2 .7 1.7Zm2.7 7.2-14.3 1.5-.7-1.7 14.4-1.5.6 1.7Zm2.6 7.3-14.4 1-.6-1.8 14.4-1 .6 1.8Zm2.2 7.3-14.4.5-.5-1.7 14.4-.5.5 1.8Zm2 7.5h-14.4l-.5-1.8h14.5l.4 1.8Zm1.8 7.5-14.5-.6-.4-1.7 14.5.5.4 1.8Zm1.4 7.6-14.3-1.1-.4-1.8 14.4 1.1.3 1.8Zm1.3 7.6-14.4-1.6-.3-1.8 14.4 1.6.3 1.8Zm.9 7.6-14.3-2-.2-1.9 14.3 2.1.2 1.8Zm.7 7.7-14.2-2.6-.2-1.8 14.2 2.6.2 1.8Zm.4 7.7-14.1-3-.1-1.9 14.1 3v1.9Zm.1 7.7-14-3.6v-1.8l14 3.6v1.8Zm-3.3 38.3-13.2-6 .3-1.7 13.2 6-.3 1.7Zm-1.5 7.6-13-6.4.4-1.8 13 6.4-.4 1.8Zm-1.7 7.5-12.7-6.9.4-1.7 12.7 6.8-.4 1.8Zm-2 7.4-12.5-7.3.5-1.7 12.5 7.3-.5 1.7Zm-2.3 7.4-12.2-7.7.6-1.7 12.2 7.7-.6 1.7Zm-2.5 7.3-11.9-8.2.6-1.7 12 8.2-.7 1.7Zm-2.8 7.2-11.6-8.6.7-1.7 11.6 8.6-.6 1.7Zm-3 7.1-11.3-9 .7-1.6 11.4 9-.8 1.6Zm-3.2 6.9-11-9.3.8-1.6 11 9.3-.8 1.6Zm-3.5 6.9-10.7-9.7.8-1.6 10.7 9.7-.8 1.6Zm-3.8 6.7-10.3-10 1-1.6 10.2 10-.9 1.6Zm-3.9 6.6-10-10.4 1-1.5 9.9 10.4-1 1.5Zm-4.2 6.5-9.6-10.8 1-1.5 9.5 10.8-1 1.5Zm-4.4 6.3-9.3-11.1 1-1.5 9.3 11.1-1 1.5Zm-4.7 6.2-8.8-11.5 1-1.4 8.9 11.4-1.1 1.5Zm-4.9 5.9L410 380l1.2-1.4 8.4 11.7-1.2 1.4Zm-27.2 27.2-6.2-13 1.3-1.2 6.2 13-1.3 1.2Zm-6 4.8-5.8-13.2 1.4-1.1 5.8 13.2-1.4 1.1Zm-6.2 4.7-5.3-13.5 1.5-1 5.3 13.4-1.5 1Zm-6.3 4.4-4.8-13.6 1.5-1 4.8 13.5-1.5 1Zm-6.5 4.2-4.3-13.8 1.5-1 4.3 13.8-1.5 1Zm-6.6 3.9-3.8-13.9 1.5-1 3.9 14-1.6.9Zm-6.7 3.7-3.4-14 1.6-.9 3.3 14-1.5 1Zm-6.9 3.5-3-14.1 1.6-.8 2.9 14-1.6.9Zm-7 3.2-2.4-14.2 1.7-.7 2.3 14.2-1.6.7Zm-7.1 3L330 440l1.7-.7 1.9 14.3-1.7.7Zm-7.2 2.7-1.4-14.3 1.7-.6 1.4 14.3-1.7.7Zm-7.3 2.6-.9-14.4 1.7-.6 1 14.4-1.8.6Zm-7.4 2.2-.3-14.4 1.7-.6.4 14.5-1.8.5Zm-7.4 2 .1-14.5 1.8-.4-.2 14.4-1.7.5Zm-7.6 1.7.7-14.5 1.8-.3-.7 14.4-1.7.4Zm-7.5 1.5 1.1-14.5 1.8-.3-1.1 14.4-1.8.3Z"/>
</svg>
