<?xml version="1.0" encoding="UTF-8" ?>
<svg viewBox="0 0 500 500" xmlns="http://www.w3.org/2000/svg" preserveAspectRatio="none">
  <g id="path">
    <path
      d="M 0 78 L 0 154 L 78 154 Z M 65 500 L 180 500 L 180 387.5 Z M 319.5 388 L 319.5 500 L 435 500 L 320 388 Z M 0 346 L 0 422 L 78 346 Z M 435 0 L 320 0 L 320 112.5 Z M 500 422 L 500 346 L 422 346 Z M 500 154 L 500 78 L 422 154 Z M 180.5 0 L 65 0 L 180 112.5 L 180 0 Z M 180.5 0 "
    />
    <path
      d="M 349 346 L 484 477 C 490.957031 466.933594 495.726562 455.523438 498 443.5 L 398 346 L 348.5 346 Z M 180.5 346 L 150.5 346 L 15.5 477 C 23 487 32.5 494.5 43 498 L 180 364.5 L 180 346 Z M 320 154 L 350 154 L 485 23 C 478.128906 12.996094 468.089844 5.597656 456.5 2 L 320 135.5 Z M 151.5 154 L 16 23 C 9.054688 33.070312 4.289062 44.480469 2 56.5 L 102 154 Z M 151.5 154 "
    />
    <path
      d="M 291.5 192.5 L 291.5 0 L 208.5 0 L 208.5 192.5 L 0 192.5 L 0 307.5 L 208.5 307.5 L 208.5 500 L 291.5 500 L 291.5 307.5 L 500 307.5 L 500 192.5 Z M 291.5 192.5 "
    />
  </g>
</svg>
