<?xml version="1.0" encoding="UTF-8" ?>
<svg viewBox="0 0 500 500" xmlns="http://www.w3.org/2000/svg">
  <defs>
  <linearGradient id="gradient">
    <stop offset="0%" stop-color="#38bdf8"></stop>
    <stop offset="100%" stop-color="#2563eb"></stop>
  </linearGradient>
  </defs>
  <path
    id="path"
    fill="url('#gradient')"
    d="M 58.017806,500 Q 45.663299,488.82203 35.476164,476.15437 24.840791,463.94382 16.821093,449.78648 8.8013866,435.62909 3.8456075,419.0679 -0.73578212,402.84537 0.14077758,384.65969 0.94345967,367.26984 9.1498821,348.8146 17.730687,330.69809 32.523194,315.61369 q 6.723881,-6.85653 14.570881,-12.69685 8.295238,-6.29747 16.068403,-11.34197 8.595746,-5.16293 17.492015,-9.19127 9.270626,-3.6896 17.718626,-7.26088 9.270671,-3.6896 17.792571,-8.05666 8.97013,-4.82416 16.14224,-12.13778 6.72389,-6.85658 9.55617,-15.5087 3.20672,-8.31342 2.30021,-16.03494 -0.45822,-8.17864 -3.45822,-15.20634 -3.00003,-7.02766 -7.27099,-13.4799 -3.89652,-6.11347 -9.06397,-11.65149 -5.16744,-5.538 -10.7831,-10.61888 l 49.30834,-50.28124 q 5.61572,5.0809 11.67966,9.7047 6.06394,4.62381 12.65004,7.99464 6.96045,3.7096 14.44305,6.16629 7.4826,2.45667 15.56122,2.86457 8.52688,-0.0491 16.9749,-3.62045 8.82237,-3.23251 15.54625,-10.08905 7.17212,-7.31362 11.20144,-15.74542 4.47759,-8.88889 7.30994,-17.54103 3.65494,-8.770533 6.9355,-17.879741 3.65496,-8.770538 8.05867,-16.863598 5.22635,-8.211432 10.82705,-16.084179 6.049,-8.329806 12.77288,-15.186343 14.79252,-15.084343 33.10715,-24.393972 18.68906,-8.9708937 36.71321,-10.77932063 18.84677,-1.92681347 35.97939,1.49683143 17.50698,3.7623731 32.69883,10.6060772 15.19184,6.843712 28.51675,16.311653 13.77319,9.010851 26.1277,20.188836 l -49.75661,50.738346 q -6.36446,-5.758346 -12.80279,-10.720899 -6.4383,-4.962507 -13.77317,-9.010821 -6.51222,-4.166701 -14.74355,-7.300806 -7.85698,-2.795403 -16.68439,-3.880776 -8.82739,-1.085343 -18.77289,1.130985 -9.57114,2.55506 -17.19153,10.325791 -6.72388,6.856538 -11.20146,15.745418 -3.65494,8.770548 -7.30992,17.541028 -3.20668,8.31345 -6.86162,17.08396 -3.65498,8.77052 -8.50695,17.32067 -4.85197,8.55016 -10.45267,16.42291 -5.60076,7.8727 -12.77287,15.18633 -9.86168,10.05625 -22.344,17.7414 -12.03409,7.22808 -25.27013,9.91787 -12.41345,2.57147 -25.354,2.078 -12.11796,-0.61182 -23.56596,-4.06829 4.2759,10.77009 5.18739,22.8095 1.73411,11.92101 -0.64498,24.43395 -1.55641,12.39452 -8.79742,24.82184 -6.79279,11.97024 -16.65444,22.02649 -7.17214,7.31366 -15.01914,13.15398 -7.847,5.84035 -16.44278,11.00327 -8.59575,5.16288 -17.49203,9.19124 -8.89622,4.02833 -17.79252,8.05667 -8.448,3.57124 -17.79251,8.0567 -8.521911,4.36705 -15.245761,11.2236 -7.620403,7.77073 -9.703956,17.10032 -1.709179,9.66834 -0.05388,18.06734 1.655209,8.399 5.029612,15.76539 3.748791,7.70515 8.467985,13.70022 4.645298,6.79097 10.187119,12.66767 5.541821,5.87672 11.906281,11.63511 z"
  />
</svg>
